<svg xmlns="http://www.w3.org/2000/svg" viewBox="0 0 512 512"><defs><style>.cls-1{fill:#a6c8dd;}.cls-2{fill:#4d91bb;}.cls-3{fill:#f2f2f2;}.cls-4{fill:#d3e3ee;}</style></defs><title>05 Clean Binder</title><g id="_05_Clean_Binder" data-name="05 Clean Binder"><rect class="cls-1" x="141.03" y="112.8" width="224.81" height="286.4" rx="5" ry="5"/><path class="cls-2" d="M149.72,265.36H131a9.36,9.36,0,0,1,0-18.72h18.72a9.36,9.36,0,0,1,0,18.72Z"/><path class="cls-2" d="M149.72,218.56H131a9.36,9.36,0,0,1,0-18.72h18.72a9.36,9.36,0,0,1,0,18.72Z"/><path class="cls-2" d="M149.72,312.16H131a9.36,9.36,0,0,1,0-18.72h18.72a9.36,9.36,0,0,1,0,18.72Z"/><path class="cls-2" d="M149.72,359H131a9.36,9.36,0,0,1,0-18.72h18.72a9.36,9.36,0,0,1,0,18.72Z"/><path class="cls-2" d="M149.72,171.76H131A9.36,9.36,0,0,1,131,153h18.72a9.36,9.36,0,0,1,0,18.72Z"/><rect class="cls-3" x="197.12" y="162.4" width="112.62" height="46.8" rx="4.62" ry="4.62"/><path class="cls-2" d="M381,160.39h0a0,0,0,0,1,0,0V209.2a0,0,0,0,1,0,0h0A15.16,15.16,0,0,1,365.84,194V175.56A15.16,15.16,0,0,1,381,160.39Z" transform="translate(746.84 369.6) rotate(180)"/><path class="cls-4" d="M381,209.2h0a0,0,0,0,1,0,0V258a0,0,0,0,1,0,0h0a15.16,15.16,0,0,1-15.16-15.16V224.36A15.16,15.16,0,0,1,381,209.2Z" transform="translate(746.84 467.21) rotate(-180)"/><path class="cls-2" d="M381,258h0a0,0,0,0,1,0,0v48.81a0,0,0,0,1,0,0h0a15.16,15.16,0,0,1-15.16-15.16V273.17A15.16,15.16,0,0,1,381,258Z" transform="translate(746.84 564.83) rotate(-180)"/><path class="cls-4" d="M381,306.82h0a0,0,0,0,1,0,0v48.81a0,0,0,0,1,0,0h0a15.16,15.16,0,0,1-15.16-15.16V322A15.16,15.16,0,0,1,381,306.82Z" transform="translate(746.84 662.45) rotate(180)"/></g></svg>