<svg xmlns="http://www.w3.org/2000/svg" viewBox="0 0 512 512"><defs><style>.cls-1{fill:#4d91bb;}.cls-2{fill:#7aaccc;}.cls-3{fill:#a6c8dd;}</style></defs><title>09 Clean Backpack</title><g id="_09_Clean_Backpack" data-name="09 Clean Backpack"><rect class="cls-1" x="354.36" y="289.61" width="50.63" height="101.27" rx="10.13" ry="10.13"/><rect class="cls-2" x="354.36" y="289.61" width="50.63" height="34.52" rx="10.13" ry="10.13"/><rect class="cls-1" x="107.01" y="289.61" width="50.63" height="101.27" rx="10.13" ry="10.13"/><rect class="cls-2" x="107.01" y="289.61" width="50.63" height="34.52" rx="10.13" ry="10.13"/><path class="cls-1" d="M289.82,139.3a9.48,9.48,0,0,1-9.48-9.48,24.35,24.35,0,0,0-48.69,0,9.48,9.48,0,1,1-19,0,43.3,43.3,0,1,1,86.6,0A9.48,9.48,0,0,1,289.82,139.3Z"/><path class="cls-3" d="M256,125.77h0A123.67,123.67,0,0,1,379.67,249.45V400.8a15.2,15.2,0,0,1-15.2,15.2H147.53a15.2,15.2,0,0,1-15.2-15.2V249.45A123.67,123.67,0,0,1,256,125.77Z"/><path class="cls-2" d="M132.33,345.14V400.8a15.2,15.2,0,0,0,15.2,15.2H364.47a15.2,15.2,0,0,0,15.2-15.2V345.14Z"/><rect class="cls-1" x="167.94" y="235.74" width="177.26" height="127.56" rx="10.13" ry="10.13"/><rect class="cls-2" x="167.94" y="235.74" width="177.26" height="35.15" rx="10.13" ry="10.13"/><circle class="cls-2" cx="256" cy="180.62" r="16.61"/></g></svg>