<?xml version="1.0" encoding="iso-8859-1"?>
<!-- Generator: Adobe Illustrator 16.0.0, SVG Export Plug-In . SVG Version: 6.00 Build 0)  -->
<!DOCTYPE svg PUBLIC "-//W3C//DTD SVG 1.1//EN" "http://www.w3.org/Graphics/SVG/1.1/DTD/svg11.dtd">
<svg version="1.1" id="Layer_1" xmlns="http://www.w3.org/2000/svg" xmlns:xlink="http://www.w3.org/1999/xlink" x="0px" y="0px"
	 width="512px" height="512px" viewBox="0 0 512 512" style="enable-background:new 0 0 512 512;" xml:space="preserve">
<g>
	<path style="fill-rule:evenodd;clip-rule:evenodd;fill:#90DFAA;" d="M512,256.005C512,397.518,397.216,512,255.803,512
		C114.785,512,0,397.518,0,256.005C0,114.49,114.785,0,255.803,0C397.216,0,512,114.49,512,256.005L512,256.005z"/>
	<path style="fill-rule:evenodd;clip-rule:evenodd;fill:#FFFFFF;" d="M442.499,201.143c-0.797-2.779-3.584-4.367-5.966-3.971
		c-119.957,7.95-241.105,7.95-361.063,0c-2.779-0.396-5.161,1.588-6.363,4.368c-3.97,13.121-6.347,26.638-6.347,39.36
		c0,3.176,2.775,5.958,6.347,5.958h373.785c3.572,0,6.352-2.782,6.352-5.958C449.244,229.369,448.451,215.852,442.499,201.143
		L442.499,201.143z"/>
	<path style="fill-rule:evenodd;clip-rule:evenodd;fill:#E6E9EE;" d="M455.197,240.105c0-3.185-2.779-5.567-5.953-5.567H287.181
		c-3.173,0-5.952,2.78-5.952,6.362H231.17c0-3.582-2.78-6.362-6.347-6.362H62.76c-3.178,0-5.953,2.383-6.351,5.567
		c0,1.588-2.394,34.976,13.096,65.98c1.203,1.997,3.186,3.188,5.567,3.188c0.398,0,0.398,0,0.398,0
		c48.457-3.188,97.308-5.173,145.781-5.572l28.599-0.394l40.903,0.394c48.469,0.399,97.324,2.384,145.78,5.572
		c2.775,0.394,5.567-1.594,6.359-4.38C457.988,274.284,455.595,241.693,455.197,240.105L455.197,240.105z"/>
	<polygon style="fill-rule:evenodd;clip-rule:evenodd;fill:#2B3B4E;" points="255.011,273.496 269.708,277.473 251.041,348.626 
		239.123,333.916 222.044,341.07 240.707,269.522 	"/>
	<polygon style="fill-rule:evenodd;clip-rule:evenodd;fill:#324A5E;" points="264.548,280.25 252.629,289.79 298.307,347.435 
		303.463,329.943 321.732,329.15 276.055,271.112 	"/>
	<path style="fill-rule:evenodd;clip-rule:evenodd;fill:#FF7058;" d="M306.242,247.254L306.242,247.254
		c2.394-3.971,1.191-8.745-2.381-11.128l0,0c-2.779-1.984-4.364-4.772-3.571-8.344l0,0c0.792-4.376-1.983-8.349-6.348-9.142l0,0
		c-3.189-0.398-5.571-3.184-6.363-6.362l0,0c-0.796-4.375-5.16-7.155-9.541-6.362l0,0c-3.567,0.796-6.347-0.396-8.33-3.184l0,0
		c-2.381-3.971-7.554-4.764-11.126-1.984l0,0c-2.779,1.588-5.953,1.588-8.732,0l0,0c-3.584-2.383-8.745-1.191-11.126,2.389l0,0
		c-1.588,2.779-4.762,3.971-8.346,3.575l0,0c-4.364-0.796-8.334,1.986-9.126,5.963l0,0c-0.398,3.574-3.19,5.965-6.364,6.759l0,0
		c-4.368,0.795-7.143,5.165-5.953,9.54l0,0c0.394,3.176-0.796,6.36-3.572,8.345l0,0c-3.982,2.391-4.38,7.554-1.999,11.134l0,0
		c1.601,2.782,1.999,5.958,0,8.745l0,0c-2.381,3.575-1.191,8.744,2.393,11.127l0,0c2.78,1.598,4.368,4.77,3.572,7.949l0,0
		c-0.792,4.775,1.987,8.752,6.351,9.548l0,0c3.19,0.396,5.571,3.173,6.364,5.958l0,0c0.792,4.371,5.16,7.561,9.524,6.36l0,0
		c3.584-0.798,6.363,0.794,8.347,3.579l0,0c2.381,3.574,7.542,4.367,11.125,1.983l0,0c2.78-1.585,5.953-1.983,8.733,0l0,0
		c3.571,2.384,8.744,1.192,11.125-2.382l0,0c1.585-2.786,4.763-4.372,8.347-3.579l0,0c4.364,0.793,8.334-1.984,9.126-6.364l0,0
		c0.398-3.172,3.174-5.556,5.966-6.352l0,0c4.763-0.798,7.542-5.169,6.351-9.549l0,0c-0.397-3.575,0.793-6.754,3.572-8.344l0,0
		c3.982-2.38,4.376-7.552,1.982-11.127l0,0C304.26,253.616,304.26,249.643,306.242,247.254L306.242,247.254z"/>
	<path style="fill-rule:evenodd;clip-rule:evenodd;fill:#FFFFFF;" d="M291.151,244.475c-4.368-20.276-24.223-33.389-44.491-29.02
		c-20.252,4.375-32.963,24.253-28.997,44.521c4.381,20.274,24.235,32.999,44.491,29.018
		C282.419,284.629,295.527,264.752,291.151,244.475L291.151,244.475z"/>
	<path style="fill-rule:evenodd;clip-rule:evenodd;fill:#FF7058;" d="M286.783,245.267c-3.572-17.486-21.045-29.019-38.933-25.437
		c-17.871,3.971-29.391,21.466-25.409,38.954c3.572,17.883,21.044,29.42,38.916,25.845
		C279.245,280.648,290.354,263.158,286.783,245.267L286.783,245.267z"/>
</g>
</svg>
