<?xml version="1.0" encoding="iso-8859-1"?>
<!-- Generator: Adobe Illustrator 16.0.0, SVG Export Plug-In . SVG Version: 6.00 Build 0)  -->
<!DOCTYPE svg PUBLIC "-//W3C//DTD SVG 1.1//EN" "http://www.w3.org/Graphics/SVG/1.1/DTD/svg11.dtd">
<svg version="1.1" id="Layer_1" xmlns="http://www.w3.org/2000/svg" xmlns:xlink="http://www.w3.org/1999/xlink" x="0px" y="0px"
	 width="512px" height="512px" viewBox="0 0 512 512" style="enable-background:new 0 0 512 512;" xml:space="preserve">
<g>
	<path style="fill-rule:evenodd;clip-rule:evenodd;fill:#153D55;" d="M512,255.997C512,114.886,397.436,0,255.802,0
		C114.571,0,0,114.886,0,255.997C0,397.525,114.571,512,255.802,512C397.436,512,512,397.525,512,255.997L512,255.997z"/>
	<polygon style="fill-rule:evenodd;clip-rule:evenodd;fill:#FEFEFE;" points="76.779,131.579 235.907,131.579 235.907,285.812 
		194.139,327.949 76.779,327.949 	"/>
	<polygon style="fill:#FD8469;" points="133.273,192.001 179.421,192.001 179.421,207.108 152.762,207.108 152.762,221.418 
		177.83,221.418 177.83,235.729 152.762,235.729 152.762,267.527 133.273,267.527 	"/>
	<polygon style="fill-rule:evenodd;clip-rule:evenodd;fill:#FEFEFE;" points="273.303,225.786 432.439,225.786 432.439,380.023 
		390.664,422.161 273.303,422.161 	"/>
	<path style="fill:#ABCB57;" d="M342.53,286.206l11.144,75.533h-19.902l-1.192-13.518h-7.154l-0.794,13.518h-20.695l9.951-75.533
		H342.53z M332.185,334.704c-1.192-8.34-1.99-19.081-3.183-31.801c-1.986,14.709-3.179,25.046-3.577,31.801H332.185z
		 M356.457,318.409h16.706v-17.092h11.542v17.092h16.707v11.134h-16.707v17.085h-11.542v-17.085h-16.706V318.409z"/>
	<path style="fill-rule:evenodd;clip-rule:evenodd;fill:#FFD05B;" d="M290.807,89.441c42.172,10.736,69.228,50.479,65.251,92.617
		l-15.119-21.062c-1.986-2.793-5.575-3.586-8.359-1.59c-2.779,1.989-3.178,5.563-1.587,8.341l0,0l23.475,32.594
		c1.591,2.383,5.567,3.192,7.953,1.192h0.394l0.399-0.399l0,0l0,0l31.826-22.651c2.795-1.984,3.19-5.97,1.191-8.751
		c-1.99-2.383-5.566-3.176-8.347-1.191l-19.89,14.314c1.991-20.667-2.396-41.345-13.527-59.629
		c-13.528-22.651-35.017-38.95-60.469-45.318c-35.414-8.751-72.412,1.988-97.077,28.625c-1.986,2.383-1.986,5.161-0.397,7.543
		c0,0.411,0.397,0.81,0.796,1.208c2.385,1.984,6.365,1.984,8.353-0.398C227.554,91.425,260.174,81.881,290.807,89.441
		L290.807,89.441z"/>
	<path style="fill-rule:evenodd;clip-rule:evenodd;fill:#E6E9EE;" d="M390.664,422.161l41.775-42.138h-33.812
		c-4.388,0-7.964,3.582-7.964,7.559V422.161z"/>
	<path style="fill-rule:evenodd;clip-rule:evenodd;fill:#E6E9EE;" d="M194.139,327.949l41.768-42.138h-33.812
		c-4.379,0-7.957,3.574-7.957,7.561V327.949z"/>
</g>
</svg>
