<?xml version="1.0" encoding="iso-8859-1"?>
<!-- Generator: Adobe Illustrator 16.0.0, SVG Export Plug-In . SVG Version: 6.00 Build 0)  -->
<!DOCTYPE svg PUBLIC "-//W3C//DTD SVG 1.1//EN" "http://www.w3.org/Graphics/SVG/1.1/DTD/svg11.dtd">
<svg version="1.1" id="Layer_1" xmlns="http://www.w3.org/2000/svg" xmlns:xlink="http://www.w3.org/1999/xlink" x="0px" y="0px"
	 width="512px" height="512px" viewBox="0 0 512 512" style="enable-background:new 0 0 512 512;" xml:space="preserve">
<g>
	<path style="fill-rule:evenodd;clip-rule:evenodd;fill:#324A5E;" d="M512,256.201C512,397.209,397.216,512,255.803,512
		C114.785,512,0,397.209,0,256.201C0,114.795,114.785,0,255.803,0C397.216,0,512,114.795,512,256.201L512,256.201z"/>
	<rect x="255.803" y="357.087" style="fill-rule:evenodd;clip-rule:evenodd;fill:#F9B54C;" width="23.837" height="35.749"/>
	<path style="fill-rule:evenodd;clip-rule:evenodd;fill:#BA7958;" d="M232.361,416.667v-11.913c0-6.354,5.173-11.918,11.918-11.918
		h47.266c6.762,0,11.918,5.563,11.918,11.918v11.913 M232.361,416.667L232.361,416.667L232.361,416.667z"/>
	<path style="fill-rule:evenodd;clip-rule:evenodd;fill:#F9B54C;" d="M267.721,101.293c-3.173,0-5.566-2.779-5.566-5.962V71.5
		c0-3.173,2.394-5.957,5.566-5.957c3.572,0,5.953,2.784,5.953,5.957v23.831C273.674,98.514,271.293,101.293,267.721,101.293
		L267.721,101.293z"/>
	<path style="fill-rule:evenodd;clip-rule:evenodd;fill:#F9B54C;" d="M267.721,363.048c-3.173,0-5.566-2.381-5.566-5.961v-23.831
		c0-3.174,2.394-5.957,5.566-5.957c3.572,0,5.953,2.783,5.953,5.957v23.831C273.674,360.667,271.293,363.048,267.721,363.048
		L267.721,363.048z"/>
	<path style="fill-rule:evenodd;clip-rule:evenodd;fill:#996459;" d="M309.433,410.716h-83.025
		c-16.68,0-29.789,13.506-29.789,29.788c0,3.178,2.381,5.961,5.953,5.961h130.685c3.571,0,5.965-2.783,5.965-5.961
		C339.222,424.222,326.113,410.716,309.433,410.716L309.433,410.716z"/>
	<path style="fill-rule:evenodd;clip-rule:evenodd;fill:#5F95DD;" d="M392.839,214.494c0-69.114-56.011-125.124-125.118-125.124
		c-69.119,0-125.13,56.01-125.13,125.124c0,69.119,56.011,124.723,125.13,124.723C336.828,339.217,392.839,283.613,392.839,214.494
		L392.839,214.494z"/>
	<path style="fill-rule:evenodd;clip-rule:evenodd;fill:#FFD05B;" d="M291.545,363.048h-23.824
		c-81.83,0-148.556-66.733-148.556-148.554c0-82.222,66.726-148.951,148.556-148.951h23.824c3.588,0,5.97,2.784,5.97,5.957
		c0,3.178-2.382,5.961-5.97,5.961h-23.824c-75.466,0-136.638,61.565-136.638,137.033c0,75.465,61.172,136.641,136.638,136.641
		h23.824c3.588,0,5.97,2.778,5.97,5.952C297.515,360.667,295.133,363.048,291.545,363.048L291.545,363.048z"/>
	<path style="fill-rule:evenodd;clip-rule:evenodd;fill:#5F95DD;" d="M388.077,214.494c0-66.732-54.028-120.751-120.356-120.751
		c-66.738,0-120.75,54.019-120.75,120.751c0,66.332,54.012,120.358,120.75,120.358C334.049,334.853,388.077,280.826,388.077,214.494
		L388.077,214.494z"/>
	<path style="fill-rule:evenodd;clip-rule:evenodd;fill:#ABCB57;" d="M207.745,205.36c0.792-1.987,3.173-2.779,4.364-4.771
		c1.589-2.382-0.398-5.555-1.983-8.736c-1.588-2.381-3.177-6.359,0-7.944c-2.381-2.779-3.572-5.961-4.762-8.736
		c-1.601-3.177-3.982-5.961-7.554-5.563c-2.381,0-4.364,1.992-6.352,3.576c-3.186,1.589-6.363,1.986-9.139,3.178
		c-2.779,1.189-6.351,3.182-6.75,6.753c-0.394,3.178,1.589,6.355,0,9.13c-1.584,3.58-7.156,5.169-5.567,8.343
		c0.394,0.8,0.792,1.991,1.19,2.39c1.191,2.381-1.589,5.155-3.97,6.752l-19.854,15.885c0.394,3.97,0.792,8.74,2.381,12.706
		c0.394,0,0.394,0,0.792,0c2.381,0,5.555-1.585,7.538,0.398c0.398,0.8,1.589,1.593,2.398,1.593c0.394,0,0.792-0.395,1.19-0.793
		c0.792-1.592,1.585-3.58,1.585-5.563c2.779,2.779,5.953,5.563,8.732,8.736c4.38-1.982,5.571-8.338,10.333-9.528
		c4.762-1.589,9.936,3.966,14.299,2.382c3.572-1.191,5.161-5.564,7.952-7.551c3.174-2.381,8.33-1.982,12.698-1.19
		c1.191-5.957-1.19-11.919-5.161-16.282C209.728,208.932,206.948,207.343,207.745,205.36L207.745,205.36z"/>
	<path style="fill-rule:evenodd;clip-rule:evenodd;fill:#ABCB57;" d="M251.439,135.056c0.394-3.182-3.588-5.164-5.969-3.576
		c-0.395-0.398-1.191-0.797-1.585-1.19c1.983-3.177,7.156-1.987,9.936,0.394c2.775,2.382,5.156,6.359,8.334,7.945
		c2.394,0,3.584-3.174,3.982-5.957c0-2.382-0.398-5.161,1.584-7.152c0.398-0.793,1.191-1.589,1.589-2.779
		c0.793-3.182-4.364-4.373-5.555-7.147c-0.796-2.78,0.395-5.164,1.19-7.546c0.793-2.381,0.395-5.961-1.986-6.359
		c-3.186,5.169-12.316,4.373-14.312,9.533c-0.797,3.182,0,6.753-3.178,7.943c-1.983,0.793-3.966-1.588-4.364-3.97
		c0-2.774,0.792-4.766,0.792-7.147c0-1.19-0.394-1.986-0.394-3.182c0-1.986,1.19-3.97,1.584-5.559c0.398-0.792,0.398-1.584,0-2.385
		c-22.235,4.372-43.296,15.498-60.375,32.572c-0.792,0.796-1.584,1.986-2.775,2.779c0.394,5.961,5.156,11.918,6.745,17.879
		c0.792,2.381,0.792,5.156,1.589,7.545c1.203,2.382,2.792,4.364,5.173,4.763c1.983-2.381,2.381-5.953,0.394-8.343
		c1.589-1.189,3.178-1.584,3.97-3.173c1.19-1.19,1.19-3.576-0.792-3.974c-0.796-0.398-1.987,0-3.178,0
		c-3.173,0-5.567-3.971-7.156-7.152c6.762-2.381,14.697,0,18.281,5.961c-0.792-0.791-1.203-1.982-1.995-3.173
		c5.567-1.597,11.122-2.39,16.693-1.991c1.589,0,3.173,0.395,4.364-0.398c1.987-0.792,3.177-3.174,5.555-3.174
		c1.589,0,2.779,0.793,4.38,1.191C240.313,139.424,246.266,131.479,251.439,135.056L251.439,135.056z"/>
	<path style="fill-rule:evenodd;clip-rule:evenodd;fill:#ABCB57;" d="M292.342,135.454c3.186,1.588,7.948,0.398,10.329-2.39
		c0.792-0.792,1.589-1.19,2.381-1.19c1.19,0,2.792,1.19,3.584,2.779c4.368,5.563,12.305,9.143,19.858,7.156
		c0.398-2.386-3.571-3.576-3.571-5.957c0-1.992,3.173-3.182,5.16-1.992c1.983,0.793,3.174,2.784,4.763,3.576
		c2.394,0.797,5.173,0.398,6.758-0.792c1.588-1.589,2.381-4.372,1.588-6.355c-0.397-0.796-0.792-1.987-0.397-2.779
		c0.397-1.198,1.986-0.8,3.571-0.8c1.589,0.402,3.174,0.8,4.763,1.197c-14.3-14.299-30.98-23.441-49.249-28.996v0.395
		c-1.191,3.572-3.178,7.152-4.364,10.325c-1.589,3.978-1.987,9.134-4.779,12.315c-1.19,1.191-2.381,2.382-3.173,3.971
		C287.579,129.099,289.164,133.86,292.342,135.454L292.342,135.454z"/>
	<path style="fill-rule:evenodd;clip-rule:evenodd;fill:#ABCB57;" d="M380.917,210.524c-3.174-1.991-6.347-5.961-5.953-10.333
		c0-1.585,0.797-2.775,0.797-4.364c-0.797-2.389-2.382-4.372-3.572-5.961c-3.173-3.174-6.363-5.957-9.935-9.131
		c-3.971-3.182-9.936-5.563-13.508-2.389c-0.792,0.793-1.19,1.593-1.982,2.389c-2.381,1.191-4.763,0.395-6.745-0.397
		c-1.987-0.792-5.571-0.398-5.97,1.983c-0.395,3.173,3.982,4.371,4.779,7.151c0.394,0.792,0,1.584,0.394,2.381
		c0.398,4.372,6.749,5.956,9.127,2.783c1.589-2.783,1.986-6.753,4.778-6.753c3.174,1.19,5.156,4.363,5.156,7.546
		c-0.792-1.991-4.364-1.191-5.555,0.397c-1.203,1.589-1.601,3.971-2.791,5.16c-2.779,3.182-7.937,2.386-11.508,0.402
		c-8.347-2.783-16.299-5.563-24.633-8.346c-0.793-0.797-1.983-1.19-2.779-0.797c-1.191,0.797-1.585,2.39-2.775,3.183
		c-2,1.19-4.381,0.796-5.97-0.395c-1.585-1.199-3.173-2.788-5.156-3.58c-2.381-0.792-4.774,0.398-5.173,2.783
		c0,0.797,0,1.589,0.398,2.382c3.584,7.151,12.71,8.342,19.074,12.713c0.397-2.782,4.363-3.181,7.143-1.99
		c2.382,1.589,3.174,4.372,3.572,7.545c0.41,2.789,0.41,5.563,1.999,8.344c2.382,3.575,7.538,5.164,11.109,3.575
		c2.792-1.19,5.571-3.182,7.555-1.585c1.986,1.585,0.397,4.762,1.19,7.546c0.398,0.792,1.19,1.589,1.19,2.78
		c0.796,1.982-2.775,3.173-4.763,2.381c-1.982-0.797-3.173-2.779-5.173-4.369c-1.585-1.982-3.571-3.576-5.555-2.775
		c-2.381-0.406-4.364,3.174-3.173,5.555c0.792,2.382,3.173,3.58,5.156,4.771c-0.395,2.382-2.381,3.174-4.364,3.174
		c-2.381,0-3.97-0.792-5.571-1.589c-4.762-2.775-10.715-6.355-11.109-11.91c0-1.596,0.395-3.182,0-5.168
		c-0.398-5.559-4.778-9.529-8.744-12.711c-7.144-3.974-13.905-7.943-21.842-7.15c-2.791,0.397-5.965,1.588-8.346,2.778
		c-5.161,2.39-9.936,5.961-13.905,9.537c-3.174,2.779-5.953,6.354-6.347,10.325c-0.398,5.563,3.572,9.927,7.936,13.506
		c3.97,3.174,9.143,6.355,11.125,11.516c-3.97,1.199-4.363,5.958-5.555,9.936c-2.791,8.339-13.506,11.517-18.285,19.46
		c-2.381,3.975-2.775,9.536-5.555,13.108c-1.19,1.584-2.381,2.783-3.174,5.164c-2.779,5.165,2.775,11.918,8.729,12.715
		c6.363,0.792,12.316-2.39,17.095-6.359c1.19-0.792,2.382-1.982,4.364-2.381c1.19-0.402,2.381-0.402,3.572-0.402
		c2.779,0,5.953-0.398,8.744-0.398c-1.19,0-1.589-1.983-0.796-2.775c0.796-1.19,1.986-1.589,2.779-2.381
		c3.97-1.991,6.745-5.961,8.334-10.333c1.982,4.372,8.347,3.579,12.71,1.597c4.381-1.597,8.745-2.788,13.113-4.372
		c-3.178,0.395-5.953-1.986-7.144-4.771c-0.797-3.173-0.398-6.354,0.792-9.135c1.191-2.779,2.779-5.164,3.572-7.943
		c0.792-3.174,0.792-5.962,1.589-8.338c1.19-2.788,2.381-5.962,5.156-6.754c1.19,5.957,0.398,11.52-1.983,17.074
		c-1.982,3.979-5.16,9.144-1.982,12.316c1.19,1.589,3.174,1.987,5.156,2.779c5.173,0.793,9.936,1.589,14.697,2.39
		c-1.982-6.359-2.775-13.113-2.775-19.07c0-1.588,0.395-3.571,1.585-3.97c2.382,7.542,5.173,14.698,9.541,21.049
		c1.19,0.792,1.585,1.991,1.983,3.182c0,1.19,0,1.983-0.398,3.173c-1.982,5.563-4.762,9.927-5.156,15.489
		c0,2.39,0.395,5.165-0.398,7.944c3.97-3.571,8.334-7.151,12.316-11.117c24.218-23.831,35.742-54.819,35.344-86.196
		C385.695,212.905,382.916,211.715,380.917,210.524L380.917,210.524z"/>
	<path style="fill-rule:evenodd;clip-rule:evenodd;fill:#ABCB57;" d="M288.77,307.44c-1.589,1.589-3.97,1.987-6.351,1.589
		c-1.19-0.398-2.382-0.792-3.572-0.792c-1.601,0.394-2.792,1.584-3.982,3.173c-1.19,1.593-2.381,3.58-3.966,5.165
		c-0.398,0.398-0.796,1.19-0.796,1.987c0,1.991,1.987,2.385,3.178,2.385c1.584-0.394,2.774-1.593,4.364-1.991
		c1.601-0.394,2.791,0,4.376-0.394c1.987-0.398,3.571-1.987,5.16-3.178c1.19-1.19,1.983-2.382,2.382-3.576
		C290.753,309.821,290.354,307.839,288.77,307.44L288.77,307.44z"/>
	<path style="fill-rule:evenodd;clip-rule:evenodd;fill:#ABCB57;" d="M316.576,149.351c-1.987,0.801-1.589,2.783-1.19,4.766v-1.189
		c0.394,2.381,2.775,4.371,5.156,4.371c1.999,0.398,4.381-0.792,5.97-2.783c-2.779-1.982-5.174-3.174-7.555-4.762
		C318.559,149.753,317.368,148.952,316.576,149.351L316.576,149.351z"/>
</g>
</svg>
