<svg xmlns="http://www.w3.org/2000/svg" xmlns:xlink="http://www.w3.org/1999/xlink" viewBox="0 0 512 512"><defs><style>.cls-1{fill:none;}.cls-2{fill:#ffce47;}.cls-3{fill:#7aaccc;}.cls-4{fill:#a6c8dd;}.cls-5{fill:#e7d1b0;}.cls-6{clip-path:url(#clip-path);}.cls-7{fill:#6d5c49;}.cls-8{fill:#b3b3b3;}</style><clipPath id="clip-path"><circle class="cls-1" cx="210.7" cy="190.09" r="45.79"/></clipPath></defs><title>04 Lightbulb</title><g id="_04_Lightbulb" data-name="04 Lightbulb"><path class="cls-2" d="M336.11,110.86V96c0-3.67,5.55-3.67,5.55,0v14.86C341.66,114.53,336.11,114.53,336.11,110.86Z"/><path class="cls-2" d="M401.86,161.75H387c-3.67,0-3.67-5.55,0-5.55h14.86C405.53,156.2,405.53,161.75,401.86,161.75Z"/><path class="cls-2" d="M290.77,161.75H275.91c-3.67,0-3.67-5.55,0-5.55h14.86C294.44,156.2,294.45,161.75,290.77,161.75Z"/><path class="cls-2" d="M370.95,123l10.51-10.51c2.59-2.59,6.52,1.33,3.93,3.93l-10.51,10.51C372.28,129.5,368.35,125.58,370.95,123Z"/><path class="cls-2" d="M292.4,201.54,302.9,191c2.59-2.59,6.52,1.33,3.93,3.93l-10.51,10.51C293.75,208,289.77,204.17,292.4,201.54Z"/><path class="cls-2" d="M381.45,205.46,370.95,195c-2.59-2.59,1.33-6.52,3.93-3.93l10.51,10.51C388,204.13,384,208.05,381.45,205.46Z"/><path class="cls-2" d="M302.9,126.91,292.4,116.41c-2.59-2.59,1.33-6.52,3.93-3.93L306.83,123C309.42,125.58,305.5,129.51,302.9,126.91Z"/><path class="cls-3" d="M104.35,408.78a14.17,14.17,0,0,1-7.15-18.72l48.06-107.41a14.17,14.17,0,1,1,25.87,11.57L123.07,401.63A14.17,14.17,0,0,1,104.35,408.78Z"/><path class="cls-3" d="M307.11,401.63,259,294.23a14.17,14.17,0,1,1,25.87-11.57L333,390.06a14.17,14.17,0,1,1-25.87,11.57Z"/><path class="cls-4" d="M172.83,253.9h84.53a26.81,26.81,0,0,1,26.81,26.81V411a5,5,0,0,1-5,5H151a5,5,0,0,1-5-5V280.71A26.81,26.81,0,0,1,172.83,253.9Z"/><path class="cls-3" d="M241.68,253.9a37.61,37.61,0,0,1-53.18,0Z"/><circle class="cls-5" cx="210.7" cy="190.09" r="45.79"/><g class="cls-6"><path class="cls-7" d="M164.92,190.09a91.57,91.57,0,0,0,91.57-91.57A91.57,91.57,0,0,0,164.92,190.09Z"/></g><path class="cls-7" d="M256.49,190.09a45.79,45.79,0,0,0-45.79-45.79A45.79,45.79,0,0,0,256.49,190.09Z"/><path class="cls-8" d="M338.89,228.75a16.66,16.66,0,0,1-16.66-16.66V159a16.66,16.66,0,1,1,33.31,0V212.1A16.66,16.66,0,0,1,338.89,228.75Z"/><circle class="cls-2" cx="338.89" cy="158.97" r="37.85"/></g></svg>