<svg xmlns="http://www.w3.org/2000/svg" xmlns:xlink="http://www.w3.org/1999/xlink" viewBox="0 0 512 512"><defs><style>.cls-1{fill:none;}.cls-2{fill:#5a6d85;}.cls-3{fill:#f2f2f2;}.cls-4{fill:#dd6966;}.cls-5{fill:#7aaccc;}.cls-6{fill:#e7d1b0;}.cls-7{fill:#6d5c49;}.cls-8{clip-path:url(#clip-path);}.cls-9{fill:#ccc;}</style><clipPath id="clip-path"><circle class="cls-1" cx="110.2" cy="186.74" r="54.53"/></clipPath></defs><title>06 Math Problem</title><g id="_06_Math_Problem" data-name="06 Math Problem"><rect class="cls-2" x="144.46" y="19.04" width="297.49" height="378.99" rx="5" ry="5" transform="translate(501.74 -84.67) rotate(90)"/><rect class="cls-3" x="162" y="36.58" width="262.41" height="343.92" transform="translate(501.74 -84.67) rotate(90)"/><path class="cls-4" d="M198.64,156a3.48,3.48,0,0,1-6.9.66c-10.1,7.18-24.38,0-24.38-13.54,0-13.21,13.89-21.05,24.38-13.6a3.48,3.48,0,0,1,6.9.66ZM183,133.66c-11.34,0-11.58,18.79,0,18.79S194.4,133.66,183,133.66Z"/><path class="cls-4" d="M220.4,137.6H206.76a2.12,2.12,0,0,1-1.46-3.68c12.35-11.19,12.95-11.06,12.95-13.94a4.89,4.89,0,0,0-4.94-4.94c-2.23,0-3.35,1.28-4.52,2.34a2.12,2.12,0,0,1-2.83-3.14c1.44-1.3,3.42-3.45,7.35-3.45A9.18,9.18,0,0,1,222.5,120c0,5.08-3,6.78-10.26,13.37h8.16C223.16,133.35,223.22,137.6,220.4,137.6Z"/><path class="cls-4" d="M250.39,140h-9.33a3.6,3.6,0,0,1-3.61-3.61,3.65,3.65,0,0,1,3.61-3.61h9.33V123.6c0-5,7.49-4.93,7.49,0v9.13h9.33a3.65,3.65,0,0,1,3.61,3.61,3.6,3.6,0,0,1-3.61,3.61h-9.33v9.13c0,4.93-7.49,5-7.49,0Z"/><path class="cls-4" d="M280.09,143.05V117a3.58,3.58,0,0,1,7.16,0v12.35c10.28-7.23,24.77.44,24.77,13.73,0,12.73-14,21-24.9,13.54-.87,4.17-7,3.5-7-.72Zm7.16.07a8.82,8.82,0,1,0,8.8-9.33A9.06,9.06,0,0,0,287.25,143.12Z"/><path class="cls-4" d="M331.74,137.6H318.1a2.12,2.12,0,0,1-1.46-3.68C329,122.73,329.59,122.86,329.59,120a5,5,0,0,0-8.27-3.68l-1.19,1.07a2.12,2.12,0,0,1-2.83-3.14l1.19-1.07c5.7-5.32,15.36-1.22,15.36,6.82,0,5.08-3,6.78-10.26,13.37h8.16C334.5,133.35,334.56,137.6,331.74,137.6Z"/><path class="cls-4" d="M352.14,130.44h12.22a2.3,2.3,0,0,1,0,4.6H352.14A2.3,2.3,0,1,1,352.14,130.44Zm0,7.29h12.22c3.05,0,3,4.73,0,4.73H352.14A2.37,2.37,0,0,1,352.14,137.73Z"/><path class="cls-4" d="M389.13,143.12c0-13.29,15.69-21.66,27.14-12.88a3.61,3.61,0,0,1,.72,4.86,3.5,3.5,0,0,1-4.93.66c-7.14-5.22-16,0-16,7.36s8.87,12.48,16,7.29a3.5,3.5,0,0,1,4.21,5.58C404.28,164.64,389.13,156,389.13,143.12Z"/><path class="cls-4" d="M437.27,137.6H423.63a2.12,2.12,0,0,1-1.46-3.68c12.35-11.19,12.95-11.06,12.95-13.94a5,5,0,0,0-8.27-3.68l-1.19,1.07a2.12,2.12,0,0,1-2.83-3.14l1.19-1.07c5.7-5.32,15.36-1.21,15.36,6.82,0,5.08-3,6.78-10.26,13.37h8.16C440,133.35,440.09,137.6,437.27,137.6Z"/><path class="cls-5" d="M56.1,262.35H164.3a26.81,26.81,0,0,1,26.81,26.81V447.21a5,5,0,0,1-5,5H34.29a5,5,0,0,1-5-5V289.16A26.81,26.81,0,0,1,56.1,262.35Z"/><path class="cls-5" d="M205.53,365.38l-47-62.37a20,20,0,0,1,31.94-24.07l33.16,44,51.76-51.76a20,20,0,1,1,28.28,28.28l-68,68A20,20,0,0,1,205.53,365.38Z"/><path class="cls-4" d="M110.2,279.14,93.41,262.35H127Z"/><path class="cls-4" d="M104.72,398.29,87.64,381.2a7.75,7.75,0,0,1-1.91-7.81L110.2,264.83l24.47,108.57a7.75,7.75,0,0,1-1.91,7.81l-17.08,17.08A7.75,7.75,0,0,1,104.72,398.29Z"/><circle class="cls-6" cx="110.2" cy="186.74" r="54.53"/><path class="cls-7" d="M55.67,186.74a54.53,54.53,0,0,0,54.53-54.53A54.53,54.53,0,0,0,55.67,186.74Z"/><g class="cls-8"><path class="cls-7" d="M164.73,186.74A84.75,84.75,0,0,0,80,102,84.75,84.75,0,0,0,164.73,186.74Z"/></g><path class="cls-4" d="M286,229.41V205.83c0-4.62,7-4.63,7,0v23.58C293,234,286,234,286,229.41Z"/><path class="cls-9" d="M289.53,286.32a8,8,0,0,1-8-8v-57.7a8,8,0,0,1,16,0v57.7A8,8,0,0,1,289.53,286.32Z"/></g></svg>