<svg xmlns="http://www.w3.org/2000/svg" viewBox="0 0 512 512"><defs><style>.cls-1{fill:#d3e3ee;}.cls-2{fill:#e6e6e6;}.cls-3{fill:#7aaccc;}.cls-4{fill:#f2f2f2;}.cls-5{fill:#a6c8dd;}.cls-6{fill:#4d91bb;}</style></defs><title>10 Messy Binder</title><g id="_10_Messy_Binder" data-name="10 Messy Binder"><rect class="cls-1" x="150.6" y="123.73" width="224.81" height="286.4" rx="5" ry="5" transform="translate(67.98 -53.05) rotate(13.21)"/><rect class="cls-2" x="144.46" y="91.91" width="224.81" height="286.4" rx="5" ry="5" transform="translate(-24.2 29.54) rotate(-6.29)"/><path class="cls-3" d="M360.84,241.63,366,101.51a5,5,0,0,0-4.81-5.18L146.5,88.45a5,5,0,0,0-5.18,4.81L131.18,369.48a5,5,0,0,0,4.81,5.18l214.67,7.88a5,5,0,0,0,5.18-4.81l3.2-87.32h0a15.16,15.16,0,0,0,15.71-14.6l.68-18.47A15.16,15.16,0,0,0,360.84,241.63Z"/><rect class="cls-4" x="128.45" y="113.76" width="224.81" height="286.4" rx="5" ry="5" transform="translate(-26.69 27.92) rotate(-6.29)"/><rect class="cls-5" x="117.87" y="102.83" width="224.81" height="286.4" rx="5" ry="5"/><path class="cls-6" d="M126.56,255.4H107.84a9.36,9.36,0,0,1,0-18.72h18.72a9.36,9.36,0,0,1,0,18.72Z"/><path class="cls-6" d="M126.56,208.6H107.84a9.36,9.36,0,0,1,0-18.72h18.72a9.36,9.36,0,0,1,0,18.72Z"/><path class="cls-6" d="M126.56,302.19H107.84a9.36,9.36,0,0,1,0-18.72h18.72a9.36,9.36,0,0,1,0,18.72Z"/><path class="cls-6" d="M126.56,349H107.84a9.36,9.36,0,0,1,0-18.72h18.72a9.36,9.36,0,0,1,0,18.72Z"/><path class="cls-6" d="M126.56,161.8H107.84a9.36,9.36,0,1,1,0-18.72h18.72a9.36,9.36,0,1,1,0,18.72Z"/><rect class="cls-4" x="173.97" y="152.44" width="112.62" height="46.8" rx="4.62" ry="4.62"/><path class="cls-1" d="M357.84,150.43h0a0,0,0,0,1,0,0v48.81a0,0,0,0,1,0,0h0a15.16,15.16,0,0,1-15.16-15.16V165.59A15.16,15.16,0,0,1,357.84,150.43Z" transform="translate(700.53 349.67) rotate(180)"/><path class="cls-6" d="M290.14,343.33c-23.51,0-21-17.74-17.21-35.56,13.44-62.77-42.71,48-78.54,24.93-30.7-19.74,60.14-76.12,38.31-85.82-23.38-10.39-47.71,35.59-48,36.05a1.5,1.5,0,0,1-2.66-1.39c1-2,25.89-48.94,51.83-37.41,27.88,12.39-65.21,68.49-37.91,86,16.79,10.79,38.75-11.61,54.78-28,9.41-9.6,19.6-20.85,24.81-15.63,10.79,10.79-19.77,53.76,14.53,53.76a1.5,1.5,0,1,1,0,3Z"/></g></svg>