<?xml version="1.0" encoding="iso-8859-1"?>
<!-- Generator: Adobe Illustrator 16.0.0, SVG Export Plug-In . SVG Version: 6.00 Build 0)  -->
<!DOCTYPE svg PUBLIC "-//W3C//DTD SVG 1.1//EN" "http://www.w3.org/Graphics/SVG/1.1/DTD/svg11.dtd">
<svg version="1.1" id="Layer_1" xmlns="http://www.w3.org/2000/svg" xmlns:xlink="http://www.w3.org/1999/xlink" x="0px" y="0px"
	 width="512px" height="512px" viewBox="0 0 512 512" style="enable-background:new 0 0 512 512;" xml:space="preserve">
<g>
	<path style="fill-rule:evenodd;clip-rule:evenodd;fill:#324A5E;" d="M512,256.204C512,114.571,397.436,0,255.802,0
		C114.571,0,0,114.571,0,256.204C0,397.429,114.571,512,255.802,512C397.436,512,512,397.429,512,256.204L512,256.204z"/>
	<rect x="126.906" y="89.51" style="fill-rule:evenodd;clip-rule:evenodd;fill:#FFFFFF;" width="249.041" height="333.379"/>
	<rect x="146" y="121.335" style="fill-rule:evenodd;clip-rule:evenodd;fill:#324A5E;" width="13.129" height="24.669"/>
	<rect x="115.366" y="126.905" style="fill-rule:evenodd;clip-rule:evenodd;fill:#E6E9EE;" width="36.999" height="13.131"/>
	<rect x="146" y="182.208" style="fill-rule:evenodd;clip-rule:evenodd;fill:#324A5E;" width="13.129" height="25.059"/>
	<rect x="115.366" y="188.566" style="fill-rule:evenodd;clip-rule:evenodd;fill:#E6E9EE;" width="36.999" height="12.732"/>
	<rect x="146" y="243.868" style="fill-rule:evenodd;clip-rule:evenodd;fill:#324A5E;" width="13.129" height="24.665"/>
	<rect x="115.366" y="249.837" style="fill-rule:evenodd;clip-rule:evenodd;fill:#E6E9EE;" width="36.999" height="12.726"/>
	<rect x="146" y="305.127" style="fill-rule:evenodd;clip-rule:evenodd;fill:#324A5E;" width="13.129" height="24.671"/>
	<rect x="115.366" y="310.703" style="fill-rule:evenodd;clip-rule:evenodd;fill:#E6E9EE;" width="36.999" height="13.129"/>
	<rect x="146" y="365.998" style="fill-rule:evenodd;clip-rule:evenodd;fill:#324A5E;" width="13.129" height="25.066"/>
	<rect x="115.366" y="372.363" style="fill-rule:evenodd;clip-rule:evenodd;fill:#E6E9EE;" width="36.999" height="12.73"/>
	<rect x="375.947" y="178.623" style="fill-rule:evenodd;clip-rule:evenodd;fill:#90DFAA;" width="20.678" height="58.878"/>
	<rect x="375.947" y="243.47" style="fill-rule:evenodd;clip-rule:evenodd;fill:#FF7058;" width="20.678" height="58.878"/>
	<rect x="375.947" y="113.379" style="fill-rule:evenodd;clip-rule:evenodd;fill:#54C0EB;" width="20.678" height="58.879"/>
</g>
</svg>
