<?xml version="1.0" encoding="iso-8859-1"?>
<!-- Generator: Adobe Illustrator 16.0.0, SVG Export Plug-In . SVG Version: 6.00 Build 0)  -->
<!DOCTYPE svg PUBLIC "-//W3C//DTD SVG 1.1//EN" "http://www.w3.org/Graphics/SVG/1.1/DTD/svg11.dtd">
<svg version="1.1" id="Layer_1" xmlns="http://www.w3.org/2000/svg" xmlns:xlink="http://www.w3.org/1999/xlink" x="0px" y="0px"
	 width="512px" height="512px" viewBox="0 0 512 512" style="enable-background:new 0 0 512 512;" xml:space="preserve">
<g>
	<path style="fill-rule:evenodd;clip-rule:evenodd;fill:#FFD05B;" d="M512,255.997C512,114.886,397.423,0,255.794,0
		C114.577,0,0,114.886,0,255.997C0,397.525,114.577,512,255.794,512C397.423,512,512,397.525,512,255.997L512,255.997z"/>
	<polygon style="fill-rule:evenodd;clip-rule:evenodd;fill:#FEFEFE;" points="122.525,92.1 389.064,92.1 389.064,350.272 
		319.456,420.69 122.525,420.69 	"/>
	<path style="fill-rule:evenodd;clip-rule:evenodd;fill:#E6E9EE;" d="M319.456,420.69l69.608-70.418h-56.891
		c-6.756,0-12.718,5.584-12.718,12.738V420.69z"/>
	<path style="fill:#324A5E;" d="M189.764,215.813v81.164h-20.299v-43.759c0-6.373,0-9.95-0.383-11.143
		c-0.411-1.591-1.209-2.385-2.401-3.183c-1.587-0.395-4.37-0.793-9.141-0.793h-1.985v-9.552c9.539-1.986,17.104-6.36,22.269-12.734
		H189.764z M246.255,237.305H225.96c0-3.989,0-6.373,0-7.167c0-1.192-0.399-1.99-1.192-2.385c-0.798-0.798-1.99-1.192-3.183-1.192
		c-0.794,0-1.587,0.395-2.385,1.192c-0.794,0.395-1.192,1.193-1.192,2.385c0,0.794-0.396,2.796-0.396,5.975v12.73
		c1.193-1.999,2.78-3.59,4.77-4.782c1.986-1.193,4.371-1.591,7.566-1.591c3.577,0,6.756,1.192,9.535,3.182
		c3.182,1.999,4.785,4.383,5.579,7.167s1.192,6.361,1.192,11.141v6.76c0,5.56-0.398,9.95-0.794,12.73
		c-0.398,2.779-1.591,5.164-3.194,7.549c-1.986,2.401-4.77,3.988-7.948,5.583c-3.178,1.192-7.166,1.982-11.541,1.982
		c-5.563,0-9.946-0.79-13.523-2.385c-3.183-1.587-5.962-3.577-7.952-6.373c-1.986-2.78-2.796-5.963-3.191-9.137
		c-0.398-3.199-0.398-9.16-0.398-17.918v-11.125c0-9.95,0-16.307,0.398-19.501c0-3.178,1.205-6.361,3.191-9.141
		c2.385-3.183,5.169-5.181,8.347-6.772c3.577-1.591,7.964-1.986,12.335-1.986c5.563,0,10.35,0.793,13.927,2.779
		c3.972,1.604,6.356,4.387,7.96,7.566C245.461,228.148,246.255,232.125,246.255,237.305L246.255,237.305z M225.96,262.355
		c0-2.781-0.399-4.767-0.798-5.561c-0.794-1.193-1.986-1.592-3.179-1.592c-1.591,0-2.385,0.399-3.178,1.192
		c-0.798,1.193-1.193,3.179-1.193,5.96v14.721c0,3.593,0.396,5.978,1.193,7.17c0.395,1.193,1.587,1.588,3.178,1.588
		c0.794,0,1.592-0.395,2.784-1.192c0.793-0.799,1.192-3.183,1.192-6.76V262.355z M300.748,243.267v27.048
		c0,5.963,0,10.354-0.793,13.527c-0.799,2.789-1.991,5.174-4.375,7.558c-1.986,2.394-4.371,4.384-7.566,5.576
		c-2.779,0.797-5.957,1.587-9.934,1.587c-4.782,0-8.758-0.79-11.937-1.982c-3.183-0.797-5.961-2.787-7.565-5.181
		c-1.99-2.384-3.577-4.769-4.375-7.558c-0.794-2.384-1.192-6.767-1.192-12.334v-28.242c0-7.553,0.798-13.129,1.99-16.706
		c1.192-3.976,3.988-6.76,7.96-9.157c3.577-2.385,8.348-3.178,13.527-3.178c4.77,0,8.746,0.793,11.938,1.986
		c3.576,1.591,6.359,3.589,7.951,5.975c1.986,1.99,3.179,4.769,3.578,7.553C300.748,232.523,300.748,236.906,300.748,243.267
		L300.748,243.267z M280.864,236.511c0-4.387-0.399-7.17-0.798-8.363c-0.396-0.793-1.192-1.587-2.78-1.587
		c-1.591,0-2.783,0.794-3.183,1.587c-0.394,1.193-0.806,3.977-0.806,8.363v39.372c0,4.786,0.412,7.566,0.806,8.363
		c0.399,1.193,1.592,1.588,2.784,1.588c1.591,0,2.783-0.395,3.179-1.588c0.398-1.192,0.798-3.577,0.798-7.565V236.511z
		 M356.051,243.267v27.048c0,5.963-0.399,10.354-1.192,13.527c-0.398,2.789-1.99,5.174-3.977,7.558
		c-1.985,2.394-4.781,4.384-7.565,5.576c-3.179,0.797-6.361,1.587-9.938,1.587c-4.782,0-9.153-0.79-12.336-1.982
		c-3.178-0.797-5.575-2.787-7.564-5.181c-1.986-2.384-3.179-4.769-3.973-7.558c-0.798-2.384-1.192-6.767-1.192-12.334v-28.242
		c0-7.553,0.395-13.129,1.986-16.706c1.192-3.976,3.576-6.76,7.565-9.157c3.976-2.385,8.346-3.178,13.909-3.178
		c4.388,0,8.363,0.793,11.941,1.986c3.589,1.591,5.974,3.589,7.96,5.975c1.592,1.99,2.784,4.769,3.577,7.553
		C355.651,232.523,356.051,236.906,356.051,243.267L356.051,243.267z M335.763,236.511c0-4.387-0.394-7.17-0.793-8.363
		c-0.398-0.793-1.192-1.587-2.796-1.587c-1.592,0-2.385,0.794-2.784,1.587c-0.793,1.193-0.793,3.977-0.793,8.363v39.372
		c0,4.786,0,7.566,0.399,8.363c0.793,1.193,1.586,1.588,3.178,1.588c1.604,0,2.397-0.395,2.796-1.588
		c0.399-1.192,0.793-3.577,0.793-7.565V236.511z"/>
</g>
</svg>
