<svg xmlns="http://www.w3.org/2000/svg" xmlns:xlink="http://www.w3.org/1999/xlink" viewBox="0 0 512 512"><defs><style>.cls-1{fill:none;}.cls-2{fill:#7aaccc;}.cls-3{fill:#a6c8dd;}.cls-4{fill:#e7d1b0;}.cls-5{clip-path:url(#clip-path);}.cls-6{fill:#6d5c49;}.cls-7{fill:#ffce47;}.cls-8{fill:#f2f2f2;}.cls-9{fill:#dd6966;}</style><clipPath id="clip-path"><circle class="cls-1" cx="175.95" cy="178.97" r="53.93"/></clipPath></defs><title>07 Perfect 36 ACT</title><g id="_07_Perfect_36_ACT" data-name="07 Perfect 36 ACT"><path class="cls-2" d="M57.75,437.23a16.69,16.69,0,0,1-9.25-21.71L99.62,288.57a16.69,16.69,0,1,1,31,12.47L79.46,428A16.69,16.69,0,0,1,57.75,437.23Z"/><path class="cls-2" d="M230.33,292.22a16.69,16.69,0,0,1,3.22-23.38l80-60.64a16.69,16.69,0,0,1,20.16,26.6l-80,60.64A16.69,16.69,0,0,1,230.33,292.22Z"/><path class="cls-3" d="M126.57,254.12H235.67a26.81,26.81,0,0,1,26.81,26.81V440a5,5,0,0,1-5,5H104.76a5,5,0,0,1-5-5V280.93A26.81,26.81,0,0,1,126.57,254.12Z"/><path class="cls-2" d="M212.44,254.12a44.29,44.29,0,0,1-62.64,0Z"/><circle class="cls-4" cx="175.95" cy="178.97" r="53.93"/><g class="cls-5"><path class="cls-6" d="M122,179A107.85,107.85,0,0,0,229.88,71.12,107.85,107.85,0,0,0,122,179Z"/></g><path class="cls-6" d="M229.88,179A53.93,53.93,0,0,0,176,125,53.93,53.93,0,0,0,229.88,179Z"/><path class="cls-7" d="M351.35,300.41h-9.6c-3.3,0-3.31-5,0-5h9.6C354.65,295.41,354.66,300.41,351.35,300.41Z"/><path class="cls-7" d="M344.05,302.71v-9.6c0-3.3,5-3.31,5,0v9.6C349.05,306,344.05,306,344.05,302.71Z"/><path class="cls-7" d="M262.56,154.26H253c-3.3,0-3.31-5,0-5h9.6a2.5,2.5,0,0,1,0,5Z"/><path class="cls-7" d="M255.26,156.56V147c0-3.3,5-3.31,5,0v9.6C260.26,159.86,255.26,159.86,255.26,156.56Z"/><path class="cls-7" d="M389.9,74.25h-9.6c-3.3,0-3.31-5,0-5h9.6a2.5,2.5,0,0,1,0,5Z"/><path class="cls-7" d="M382.61,76.55V67c0-3.3,5-3.31,5,0v9.6C387.61,79.86,382.61,79.86,382.61,76.55Z"/><path class="cls-7" d="M448,205.85h-9.6c-3.3,0-3.31-5,0-5H448a2.5,2.5,0,0,1,0,5Z"/><path class="cls-7" d="M440.72,208.15v-9.6c0-3.3,5-3.31,5,0v9.6C445.72,211.45,440.72,211.46,440.72,208.15Z"/><rect class="cls-8" x="287.96" y="92.24" width="138.02" height="175.83" rx="5" ry="5"/><path class="cls-2" d="M399.66,220.92H314.27a4.17,4.17,0,0,1,0-8.34h85.39a4.17,4.17,0,1,1,0,8.34Z"/><path class="cls-2" d="M399.66,252.49H314.27a4.17,4.17,0,0,1,0-8.34h85.39a4.17,4.17,0,1,1,0,8.34Z"/><path class="cls-9" d="M351.87,178c0,16.23-19.75,24.7-31.41,13a4.19,4.19,0,1,1,5.93-5.93c6.17,6.17,17.11,1.87,17.11-7.11a10,10,0,0,0-10-10,3.66,3.66,0,0,1-3-1.33c-.07,0-.07,0-.07-.07a4.2,4.2,0,0,1-.15-5.93l7.56-7.7h-12c-5.46,0-5.52-8.37,0-8.37h21.85a4.19,4.19,0,0,1,3,7.19l-9.33,9.63A18.26,18.26,0,0,1,351.87,178Z"/><path class="cls-9" d="M394.7,178.56a18,18,0,0,1-35.85,1.85c0-.07,0-.07-.07-.15-1-19,6.72-35,23.11-35.56,5.24-.17,6,7.67.3,8.22-6,.16-10.1,3.58-12.59,9.19A18,18,0,0,1,394.7,178.56Zm-8.22,0a9.74,9.74,0,1,0-19.48,0,9.74,9.74,0,0,0,19.48,0Z"/><path class="cls-2" d="M342.11,122.41h-7l-1.4,3.72a1.6,1.6,0,0,1-3-1.14l6.33-16.87a1.64,1.64,0,0,1,3,0L346.46,125a1.58,1.58,0,0,1-2.95,1.14Zm-1.17-3.15-2.32-6.16-2.32,6.16Z"/><path class="cls-2" d="M347.68,116.82c0-8.56,10.23-13.44,17.13-8.08a1.64,1.64,0,0,1-2,2.61c-4.44-3.63-11.86-.69-11.86,5.47s7.28,9.14,11.86,5.47a1.74,1.74,0,0,1,2.29.32,1.69,1.69,0,0,1-.29,2.29C357.94,130.24,347.73,125.45,347.68,116.82Z"/><path class="cls-2" d="M381.69,110.26h-4.55v15.29a1.58,1.58,0,0,1-3.15,0V110.26h-4.53a1.59,1.59,0,0,1,0-3.18h12.23A1.59,1.59,0,0,1,381.69,110.26Z"/></g></svg>