<svg id="_11_1600_SAT" data-name="11 1600 SAT" xmlns="http://www.w3.org/2000/svg" xmlns:xlink="http://www.w3.org/1999/xlink" viewBox="0 0 512 512"><defs><style>.cls-1{fill:none;}.cls-2{fill:#7aaccc;}.cls-3{fill:#a6c8dd;}.cls-4{fill:#e7d1b0;}.cls-5{clip-path:url(#clip-path);}.cls-6{fill:#6d5c49;}.cls-7{fill:#ffce47;}.cls-8{fill:#f2f2f2;}.cls-9{fill:#dd6966;}</style><clipPath id="clip-path"><circle class="cls-1" cx="175.95" cy="178.97" r="53.93"/></clipPath></defs><title>11 1600 SAT</title><path class="cls-2" d="M57.75,437.23a16.69,16.69,0,0,1-9.25-21.71L99.62,288.57a16.69,16.69,0,1,1,31,12.47L79.46,428A16.69,16.69,0,0,1,57.75,437.23Z"/><path class="cls-2" d="M230.33,292.22a16.69,16.69,0,0,1,3.22-23.38l80-60.64a16.69,16.69,0,1,1,20.16,26.6l-80,60.64A16.69,16.69,0,0,1,230.33,292.22Z"/><path class="cls-3" d="M126.57,254.12H235.67a26.81,26.81,0,0,1,26.81,26.81V440a5,5,0,0,1-5,5H104.76a5,5,0,0,1-5-5V280.93A26.81,26.81,0,0,1,126.57,254.12Z"/><path class="cls-2" d="M212.44,254.12a44.29,44.29,0,0,1-62.64,0Z"/><circle class="cls-4" cx="175.95" cy="178.97" r="53.93"/><g class="cls-5"><path class="cls-6" d="M122,179A107.85,107.85,0,0,0,229.88,71.12,107.85,107.85,0,0,0,122,179Z"/></g><path class="cls-6" d="M229.88,179A53.93,53.93,0,0,0,176,125,53.93,53.93,0,0,0,229.88,179Z"/><path class="cls-7" d="M351.35,300.41h-9.6c-3.3,0-3.31-5,0-5h9.6a2.5,2.5,0,0,1,0,5Z"/><path class="cls-7" d="M344.05,302.71v-9.6c0-3.3,5-3.31,5,0v9.6C349.05,306,344.05,306,344.05,302.71Z"/><path class="cls-7" d="M262.56,154.26H253c-3.3,0-3.31-5,0-5h9.6C265.86,149.26,265.87,154.26,262.56,154.26Z"/><path class="cls-7" d="M255.26,156.55V147c0-3.3,5-3.31,5,0v9.59C260.26,159.86,255.26,159.86,255.26,156.55Z"/><path class="cls-7" d="M389.9,74.25h-9.6c-3.3,0-3.31-5,0-5h9.6a2.5,2.5,0,0,1,0,5Z"/><path class="cls-7" d="M382.61,76.55V67c0-3.3,5-3.31,5,0v9.6C387.61,79.86,382.61,79.86,382.61,76.55Z"/><path class="cls-7" d="M448,205.85h-9.6c-3.3,0-3.31-5,0-5H448C451.32,200.85,451.33,205.85,448,205.85Z"/><path class="cls-7" d="M440.72,208.15v-9.6c0-3.3,5-3.31,5,0v9.6C445.72,211.45,440.72,211.46,440.72,208.15Z"/><rect class="cls-8" x="287.96" y="92.24" width="138.02" height="175.83" rx="5" ry="5"/><path class="cls-2" d="M399.66,220.92H314.27a4.17,4.17,0,1,1,0-8.34h85.39a4.17,4.17,0,1,1,0,8.34Z"/><path class="cls-2" d="M399.66,252.49H314.27a4.17,4.17,0,1,1,0-8.34h85.39a4.17,4.17,0,1,1,0,8.34Z"/><path class="cls-2" d="M335.59,121.95c5,4.13,10.28,1.64,10.28-.92,0-2.07-4.1-3.12-5.1-3.12-11.14-2.13-7.52-11.4.23-11.4a11.22,11.22,0,0,1,6.24,2.29,1.48,1.48,0,0,1-1.63,2.46,8.31,8.31,0,0,0-4.61-1.83c-4,0-7.4,4.16.26,5.59h.06c15.64,3.06,3.92,18.31-7.59,9.22A1.48,1.48,0,0,1,335.59,121.95Z"/><path class="cls-2" d="M362,122.41h-7l-1.4,3.72a1.6,1.6,0,0,1-3-1.15L357,108.11a1.64,1.64,0,0,1,3,0L366.38,125a1.58,1.58,0,0,1-2.95,1.15Zm-1.17-3.15-2.32-6.16-2.32,6.16Z"/><path class="cls-2" d="M379.17,110.26h-4.55v15.29a1.58,1.58,0,0,1-3.15,0V110.26h-4.53a1.59,1.59,0,0,1,0-3.18h12.23A1.59,1.59,0,0,1,379.17,110.26Z"/><path class="cls-9" d="M319,177.57c0,3.66-5.68,3.8-5.68,0V152.39l-2,1.18c-3,2-6.2-3-2.92-4.86,6.89-4.09,6.5-3.84,6.5-3.84s.15-.1.26-.15.2-.05.31-.05a.31.31,0,0,1,.2-.05,4.1,4.1,0,0,1,.92-.05.3.3,0,0,0,.2.05.54.54,0,0,1,.31.1c.37,0,.21.2.51.2.25.24.56.31.77.72l.2.2.05.1c0,.05.05.1.05.15s.1.15.1.26.05.2.1.26a2.24,2.24,0,0,0,.05.26.43.43,0,0,0,.1.36Z"/><path class="cls-9" d="M349.67,168a12.42,12.42,0,0,1-24.78,1.28c0-.05,0-.05-.05-.1-.68-13,4.55-24.17,16-24.57a2.84,2.84,0,0,1,.2,5.68c-4.16.11-7,2.51-8.7,6.35A12.43,12.43,0,0,1,349.67,168ZM344,168a6.73,6.73,0,1,0-13.46,0A6.73,6.73,0,0,0,344,168Z"/><path class="cls-9" d="M352.17,162.47c.09-8.53,4.73-17.92,13-17.92s12.9,9.34,12.9,17.92a22,22,0,0,1-3.43,12.23c-2.15,3.23-5.53,5.68-9.47,5.68C357.65,180.39,352.27,172.14,352.17,162.47Zm20.22,0c0-6.59-3.36-12.36-7.22-12.23-4.27-.14-7.32,6.15-7.32,12.23,0,6.5,3.27,12.23,7.32,12.23C369,174.71,372.39,169.16,372.39,162.47Z"/><path class="cls-9" d="M381.07,162.47c.09-8.53,4.73-17.92,13-17.92s12.9,9.34,12.9,17.92c0,9.87-5.64,17.92-12.9,17.92C386.55,180.39,381.17,172.14,381.07,162.47Zm20.22,0c0-6.59-3.36-12.36-7.22-12.23-4.6-.15-7.32,6.78-7.32,12.23,0,6.48,3.26,12.23,7.32,12.23C397.86,174.71,401.29,169.16,401.29,162.47Z"/></svg>