<?xml version="1.0" encoding="iso-8859-1"?>
<!-- Generator: Adobe Illustrator 16.0.0, SVG Export Plug-In . SVG Version: 6.00 Build 0)  -->
<!DOCTYPE svg PUBLIC "-//W3C//DTD SVG 1.1//EN" "http://www.w3.org/Graphics/SVG/1.1/DTD/svg11.dtd">
<svg version="1.1" id="Layer_1" xmlns="http://www.w3.org/2000/svg" xmlns:xlink="http://www.w3.org/1999/xlink" x="0px" y="0px"
	 width="512px" height="512px" viewBox="0 0 512 512" style="enable-background:new 0 0 512 512;" xml:space="preserve">
<g>
	<path style="fill-rule:evenodd;clip-rule:evenodd;fill:#324A5E;" d="M512,255.997C512,114.886,397.427,0,255.811,0
		C114.577,0,0,114.886,0,255.997C0,397.525,114.577,512,255.811,512C397.427,512,512,397.525,512,255.997L512,255.997z"/>
	<polygon style="fill-rule:evenodd;clip-rule:evenodd;fill:#FEFEFE;" points="122.542,92.222 389.08,92.222 389.08,350.202 
		319.456,420.567 122.542,420.567 	"/>
	<path style="fill:#FF7058;" d="M235.91,248.042c4.781,1.603,8.358,3.986,10.35,7.56c2.384,3.575,3.576,11.925,3.576,25.049
		c0,9.531-1.192,17.091-3.576,22.252c-1.991,5.571-5.963,9.549-11.144,12.326c-5.566,2.777-12.335,3.969-21.081,3.969
		c-9.552,0-17.104-1.586-22.68-4.767c-5.567-3.171-9.141-7.148-10.731-11.923c-1.604-4.767-2.796-12.729-2.796-24.24v-9.549h30.628
		v19.475c0,5.571,0.411,8.751,0.81,10.338c0.794,1.191,1.986,1.987,4.371,1.987s3.976-0.796,4.375-2.777
		c0.794-1.594,1.192-6.368,1.192-13.92v-8.751c0-4.363-0.398-7.938-1.592-9.927c-0.793-2.399-2.385-3.591-4.37-4.379
		c-2.385-0.796-6.373-1.194-11.937-1.194v-17.885c7.15,0,11.537,0,13.129-0.793c1.986-0.399,3.178-1.59,3.577-3.575
		c0.794-1.59,1.192-4.778,1.192-8.751v-6.75c0-3.986-0.398-6.767-1.192-8.357c-0.798-1.191-2.385-1.984-3.977-1.984
		c-2.384,0-3.577,0.793-4.37,1.984c-0.798,1.59-1.209,4.783-1.209,9.15v10.342h-30.628v-10.74c0-11.529,2.796-19.088,8.358-23.46
		c5.169-3.969,13.527-5.958,25.065-5.958c14.72,0,24.259,2.781,29.439,8.34c5.169,5.576,7.952,13.517,7.952,23.859
		c0,6.751-0.797,11.533-2.783,14.709C243.874,242.48,240.691,245.261,235.91,248.042L235.91,248.042z M333.777,227.376h-30.233
		c0-5.559,0-9.134-0.395-10.736c0-1.191-0.798-2.782-1.592-3.575c-1.192-1.192-2.783-1.59-4.781-1.59
		c-1.592,0-2.784,0.398-3.577,1.59c-1.193,0.793-1.591,1.984-1.99,3.575c0,1.602,0,4.38,0,9.146v19.475
		c1.591-3.575,3.576-5.958,6.771-7.548c3.178-1.585,6.756-2.379,11.131-2.379c5.576,0,10.345,1.586,14.72,4.762
		c4.384,2.781,7.167,6.356,8.359,10.74c1.192,3.969,1.587,9.929,1.587,17.085v9.532c0,8.752-0.395,14.71-0.794,19.097
		c-0.793,3.969-2.385,7.938-5.563,11.529c-2.795,3.574-6.771,6.352-11.541,8.341c-4.781,1.988-10.743,2.777-17.104,2.777
		c-8.358,0-15.115-1.191-20.296-3.575c-5.168-1.979-9.14-5.16-11.937-9.539c-2.783-4.372-4.77-8.744-5.168-13.51
		c-0.398-4.38-0.794-13.518-0.794-27.034v-16.692c0-14.705,0.396-24.253,0.794-29.02c0.398-5.177,1.985-9.544,5.168-13.912
		c3.19-4.384,7.168-7.56,12.73-9.942c5.181-1.989,11.144-3.181,18.297-3.181c8.359,0,15.53,1.191,21.094,3.973
		c5.168,2.781,9.14,6.767,11.537,11.928C332.585,213.46,333.777,219.829,333.777,227.376L333.777,227.376z M303.544,265.54
		c0-4.381-0.794-7.16-1.587-8.746c-0.799-1.988-2.385-2.781-4.786-2.781c-1.986,0-3.577,0.793-4.77,2.383
		c-0.793,1.591-1.192,4.764-1.192,9.145v21.857c0,5.579,0.399,8.751,1.192,10.739c1.192,1.587,2.783,2.383,4.77,2.383
		c1.209,0,2.796-0.796,3.987-1.987c1.592-1.192,2.386-4.767,2.386-10.338V265.54z"/>
	<path style="fill-rule:evenodd;clip-rule:evenodd;fill:#E6E9EE;" d="M319.456,420.567l69.624-70.365h-56.89
		c-6.772,0-12.734,5.579-12.734,12.729V420.567z"/>
</g>
</svg>
