<svg xmlns="http://www.w3.org/2000/svg" xmlns:xlink="http://www.w3.org/1999/xlink" viewBox="0 0 512 512"><defs><style>.cls-1{fill:none;}.cls-2{fill:#7aaccc;}.cls-3{fill:#a6c8dd;}.cls-4{fill:#e7d1b0;}.cls-5{clip-path:url(#clip-path);}.cls-6{fill:#6d5c49;}.cls-7{fill:#f2f2f2;}.cls-8{fill:#4d91bb;}.cls-9{fill:#dd6966;}.cls-10{clip-path:url(#clip-path-2);}</style><clipPath id="clip-path"><circle class="cls-1" cx="300.43" cy="177.96" r="31.45"/></clipPath><clipPath id="clip-path-2"><circle class="cls-1" cx="212.93" cy="132.73" r="36.73"/></clipPath></defs><title>01 Reading</title><g id="_01_Reading" data-name="01 Reading"><path class="cls-2" d="M183.43,183.66h59a25,25,0,0,1,25,25v102.9a0,0,0,0,1,0,0h-109a0,0,0,0,1,0,0V208.66A25,25,0,0,1,183.43,183.66Z"/><path class="cls-3" d="M281,221.79h44.89a25,25,0,0,1,25,25v86.34a0,0,0,0,1,0,0H256a0,0,0,0,1,0,0V246.79A25,25,0,0,1,281,221.79Z"/><path class="cls-2" d="M321.71,221.79a25.83,25.83,0,0,1-36.53,0Z"/><circle class="cls-4" cx="300.43" cy="177.96" r="31.45"/><g class="cls-5"><path class="cls-6" d="M269,178a62.9,62.9,0,0,0,62.9-62.9A62.9,62.9,0,0,0,269,178Z"/></g><path class="cls-6" d="M331.88,178a31.45,31.45,0,0,0-31.45-31.45A31.45,31.45,0,0,0,331.88,178Z"/><path class="cls-7" d="M256,393.42a66.13,66.13,0,0,1,94.89,0V277.9a66.13,66.13,0,0,0-94.89,0,66.13,66.13,0,0,0-94.89,0V393.42A66.13,66.13,0,0,1,256,393.42Z"/><path class="cls-8" d="M272.37,288.54a66.1,66.1,0,0,1,91.82,0,5.14,5.14,0,0,1,1.55,3.72V404.58a5.22,5.22,0,0,1-8.35,4.17,66.07,66.07,0,0,0-85,5.74,5.3,5.3,0,0,1-3.66,1.51H243.29a5.3,5.3,0,0,1-3.66-1.51,66.07,66.07,0,0,0-85-5.74,5.22,5.22,0,0,1-8.35-4.17V292.23a5.14,5.14,0,0,1,1.55-3.72,66.1,66.1,0,0,1,91.82,0,5.3,5.3,0,0,0,3.66,1.51h25.41A5.3,5.3,0,0,0,272.37,288.54Z"/><path class="cls-9" d="M212.93,195l-11.31-11.31h22.62Z"/><path class="cls-9" d="M209.24,252.64l-11.51-11.51a5.22,5.22,0,0,1-1.29-5.26l16.48-50.21,16.48,50.21a5.22,5.22,0,0,1-1.29,5.26l-11.51,11.51A5.22,5.22,0,0,1,209.24,252.64Z"/><circle class="cls-4" cx="212.93" cy="132.73" r="36.73"/><path class="cls-6" d="M176.19,132.73A36.73,36.73,0,0,0,212.93,96,36.73,36.73,0,0,0,176.19,132.73Z"/><g class="cls-10"><path class="cls-6" d="M249.66,132.73a57.09,57.09,0,0,0-57.09-57.09A57.09,57.09,0,0,0,249.66,132.73Z"/></g><path class="cls-3" d="M291.5,308.58a2.5,2.5,0,0,1-1.14-4.73,68.92,68.92,0,0,1,52.77-4,2.5,2.5,0,1,1-1.58,4.74,63.88,63.88,0,0,0-48.92,3.68A2.49,2.49,0,0,1,291.5,308.58Z"/><path class="cls-3" d="M292.5,325.73a2.5,2.5,0,0,1-1.14-4.73,68.91,68.91,0,0,1,52.77-4,2.5,2.5,0,1,1-1.58,4.74,63.88,63.88,0,0,0-48.92,3.68A2.49,2.49,0,0,1,292.5,325.73Z"/></g></svg>