<?xml version="1.0" encoding="iso-8859-1"?>
<!-- Generator: Adobe Illustrator 16.0.0, SVG Export Plug-In . SVG Version: 6.00 Build 0)  -->
<!DOCTYPE svg PUBLIC "-//W3C//DTD SVG 1.1//EN" "http://www.w3.org/Graphics/SVG/1.1/DTD/svg11.dtd">
<svg version="1.1" xmlns="http://www.w3.org/2000/svg" xmlns:xlink="http://www.w3.org/1999/xlink" x="0px" y="0px" width="1000px"
	 height="1000px" viewBox="0 0 1000 1000" style="enable-background:new 0 0 1000 1000;" xml:space="preserve">
<g id="_x31_5">
</g>
<g id="_x31_4">
</g>
<g id="_x31_3">
</g>
<g id="_x31_2">
</g>
<g id="_x31_1">
</g>
<g id="_x31_0">
</g>
<g id="_x39_">
</g>
<g id="_x38_">
</g>
<g id="_x37_">
</g>
<g id="_x36_">
</g>
<g id="_x35_">
</g>
<g id="_x34_">
</g>
<g id="_x33_">
</g>
<g id="_x32_">
</g>
<g id="_x31_">
	<g>
		<path style="fill-rule:evenodd;clip-rule:evenodd;fill:#65C5B8;" d="M481.877,145.109c0-58.324-47.277-105.599-105.599-105.599
			c-58.323,0-105.598,47.275-105.598,105.599c0,58.322,47.275,105.605,105.598,105.605
			C434.6,250.714,481.877,203.431,481.877,145.109L481.877,145.109z"/>
		<path style="fill-rule:evenodd;clip-rule:evenodd;fill:#324A5E;" d="M365.803,193.835l-5.99,18.127h-7.652l19.625-57.541h8.813
			l19.627,57.541h-7.983l-5.991-18.127H365.803z M384.761,188.014l-5.651-16.457c-1.332-3.83-2.169-7.152-3-10.483h-0.161
			c-0.83,3.331-1.669,6.982-2.831,10.483l-5.652,16.626h17.295V188.014z"/>
		<path style="fill-rule:evenodd;clip-rule:evenodd;fill:#324A5E;" d="M386.253,104.534l6.16-18.127h7.974l-19.619,57.541h-8.813
			l-19.795-57.541h7.652l5.99,18.127H386.253z M367.465,110.354l5.652,16.627c1.168,3.491,2,7.152,2.831,10.482h0.161
			c0.831-3.33,1.668-6.821,3-10.482l5.651-16.465h-17.295V110.354z"/>
		<rect x="305.272" y="96.204" style="fill-rule:evenodd;clip-rule:evenodd;fill:#FFFFFF;" width="142.012" height="94.623"/>
		<path style="fill:#919395;" d="M339.21,154.229h-4.297v-2.112h-0.056c-0.992,1.644-2.453,2.467-4.387,2.467
			c-1.428,0-2.548-0.403-3.37-1.209c-0.815-0.807-1.227-1.895-1.227-3.242c0-2.854,1.694-4.499,5.072-4.942l4-0.524
			c0-1.613-0.878-2.42-2.621-2.42c-1.75,0-3.419,0.526-4.999,1.566v-3.42c0.636-0.322,1.5-0.612,2.595-0.862
			c1.098-0.25,2.098-0.373,3.001-0.373c4.185,0,6.289,2.097,6.289,6.282V154.229z M334.945,148.252v-0.992l-2.677,0.339
			c-1.476,0.195-2.209,0.863-2.209,2.008c0,0.508,0.178,0.936,0.533,1.266c0.363,0.331,0.846,0.492,1.468,0.492
			c0.847,0,1.54-0.29,2.079-0.879C334.671,149.898,334.945,149.155,334.945,148.252L334.945,148.252z M361.143,147.26h-5.531v5.534
			h-2.902v-5.534h-5.564v-2.918h5.564v-5.554h2.902v5.554h5.531V147.26z M371.038,152.519h-0.058v1.71h-4.538v-21.78h4.538v9.281
			h0.058c1.121-1.708,2.716-2.572,4.79-2.572c1.886,0,3.354,0.654,4.377,1.952c1.024,1.307,1.541,3.087,1.541,5.347
			c0,2.451-0.597,4.418-1.799,5.902c-1.201,1.493-2.797,2.226-4.797,2.226C373.335,154.583,371.972,153.898,371.038,152.519
			L371.038,152.519z M370.909,146.317v1.501c0,0.952,0.273,1.733,0.822,2.363c0.54,0.621,1.242,0.926,2.096,0.926
			c1.033,0,1.839-0.394,2.403-1.192c0.572-0.798,0.864-1.936,0.864-3.404c0-1.209-0.267-2.16-0.791-2.854
			c-0.524-0.678-1.266-1.024-2.234-1.024c-0.909,0-1.661,0.338-2.256,1.024C371.207,144.334,370.909,145.221,370.909,146.317
			L370.909,146.317z M404.25,144.173h-13.997v-2.944h13.997V144.173z M404.25,150.406h-13.997v-2.919h13.997V150.406z
			 M420.692,153.696c-1.024,0.598-2.508,0.887-4.435,0.887c-2.257,0-4.088-0.677-5.491-2.047c-1.396-1.372-2.097-3.138-2.097-5.307
			c0-2.5,0.75-4.467,2.25-5.911c1.5-1.435,3.5-2.161,6.014-2.161c1.734,0,2.985,0.235,3.759,0.686v3.855
			c-0.944-0.711-2-1.065-3.17-1.065c-1.306,0-2.338,0.379-3.104,1.146c-0.757,0.757-1.137,1.807-1.137,3.152
			c0,1.298,0.364,2.322,1.088,3.064c0.727,0.749,1.735,1.112,3.008,1.112c1.13,0,2.233-0.355,3.314-1.063V153.696z"/>
		<path style="fill:#919395;" d="M341.211,139.247v0.024h2.886v1.306h-4.685v-1.225l2.04-1.952c0.413-0.394,0.703-0.726,0.863-0.99
			c0.17-0.267,0.251-0.549,0.251-0.839c0-0.662-0.348-0.985-1.057-0.985c-0.613,0-1.192,0.243-1.758,0.726v-1.379
			c0.621-0.403,1.323-0.604,2.096-0.604c0.734,0,1.299,0.186,1.711,0.548c0.403,0.37,0.613,0.864,0.613,1.484
			c0,0.829-0.501,1.693-1.501,2.579L341.211,139.247z"/>
		<path style="fill:#919395;" d="M384.333,139.247v0.024h2.894v1.306h-4.691v-1.225l2.04-1.952c0.412-0.394,0.701-0.726,0.871-0.99
			c0.168-0.267,0.249-0.549,0.249-0.839c0-0.662-0.355-0.985-1.056-0.985c-0.612,0-1.201,0.243-1.757,0.726v-1.379
			c0.621-0.403,1.313-0.604,2.096-0.604c0.725,0,1.298,0.186,1.701,0.548c0.411,0.37,0.613,0.864,0.613,1.484
			c0,0.829-0.493,1.693-1.491,2.579L384.333,139.247z"/>
		<path style="fill:#919395;" d="M424.183,139.247v0.024h2.896v1.306h-4.694v-1.225l2.04-1.952c0.412-0.394,0.702-0.726,0.871-0.99
			c0.163-0.267,0.251-0.549,0.251-0.839c0-0.662-0.355-0.985-1.056-0.985c-0.614,0-1.202,0.243-1.758,0.726v-1.379
			c0.613-0.403,1.314-0.604,2.088-0.604c0.733,0,1.299,0.186,1.709,0.548c0.412,0.37,0.613,0.864,0.613,1.484
			c0,0.829-0.5,1.693-1.492,2.579L424.183,139.247z"/>
	</g>
	<g>
		<path style="fill-rule:evenodd;clip-rule:evenodd;fill:#87C4CB;" d="M481.877,854.883c0-58.318-47.277-105.6-105.599-105.6
			c-58.323,0-105.598,47.281-105.598,105.6c0,58.32,47.275,105.606,105.598,105.606C434.6,960.489,481.877,913.203,481.877,854.883
			L481.877,854.883z"/>
		<path style="fill-rule:evenodd;clip-rule:evenodd;fill:#FFCF5C;" d="M337.807,798.301h79.966l18.143,80.103l-6.644,0.031
			l-0.162,28.278l6.855,0.031l-0.049,4.733h-108.09c-10.232-0.799-9.322-18.98-9.87-23.852l9.112-81.422
			C327.101,802.582,330.865,798.301,337.807,798.301L337.807,798.301z"/>
		<path style="fill-rule:evenodd;clip-rule:evenodd;fill:#324A5E;" d="M337.807,798.301h7.653l-6.966,113.169h-10.669
			c-12.54-1.418-13.014-21.359-8.949-32.077l8.191-73.198c0.033-3.62,3.798-7.901,10.74-7.901V798.301z"/>
		<path style="fill-rule:evenodd;clip-rule:evenodd;fill:#FFFFFF;" d="M329.212,878.385h104.632c-4.75,9.701-4.622,19.272,0,28.708
			H329.212C317.989,907.093,317.989,878.385,329.212,878.385L329.212,878.385z"/>
		<path style="fill-rule:evenodd;clip-rule:evenodd;fill:#ECEFF0;" d="M322.431,883.86h109.243c-0.089,0.29-0.17,0.574-0.249,0.864
			H322.092C322.197,884.435,322.311,884.141,322.431,883.86L322.431,883.86z M430.916,886.885c-0.056,0.282-0.114,0.572-0.161,0.855
			l-109.486,0.008c0.057-0.291,0.113-0.581,0.186-0.863H430.916z M430.472,889.898c-0.032,0.293-0.057,0.574-0.073,0.866H320.867
			c0.015-0.292,0.049-0.583,0.072-0.866H430.472z M430.327,892.916c0.007,0.291,0.007,0.581,0.024,0.864H320.818
			c-0.017-0.283-0.025-0.573-0.025-0.864H430.327z M430.505,895.939c0.032,0.283,0.064,0.573,0.104,0.863H321.102
			c-0.041-0.29-0.081-0.572-0.122-0.863H430.505z M430.989,898.955c0.066,0.292,0.129,0.573,0.194,0.863H321.778
			c-0.089-0.28-0.162-0.571-0.235-0.863H430.989z M431.788,901.979c0.09,0.283,0.184,0.573,0.282,0.854H323.301
			c-0.202-0.178-0.393-0.379-0.58-0.579c-0.048-0.099-0.089-0.188-0.13-0.275H431.788z"/>
	</g>
	<g>
		<path style="fill-rule:evenodd;clip-rule:evenodd;fill:#324A5E;" d="M481.877,381.705c0-58.324-47.277-105.608-105.599-105.608
			c-58.323,0-105.598,47.284-105.598,105.608c0,58.315,47.275,105.6,105.598,105.6C434.6,487.304,481.877,440.02,481.877,381.705
			L481.877,381.705z"/>
		<path style="fill-rule:evenodd;clip-rule:evenodd;fill:#2B3B4E;" d="M303.103,457.703c18.965,18.288,44.736,29.602,73.175,29.602
			c28.439,0,54.219-11.314,73.176-29.602H303.103z"/>
		<rect x="395.404" y="363.577" style="fill-rule:evenodd;clip-rule:evenodd;fill:#FFFFFF;" width="3.491" height="32.755"/>
		<rect x="361.643" y="363.577" style="fill-rule:evenodd;clip-rule:evenodd;fill:#FFFFFF;" width="3.492" height="32.755"/>
		<rect x="395.404" y="363.577" style="fill-rule:evenodd;clip-rule:evenodd;fill:#CED4DF;" width="3.491" height="12.306"/>
		<rect x="361.643" y="363.577" style="fill-rule:evenodd;clip-rule:evenodd;fill:#CED4DF;" width="3.492" height="12.306"/>
		<polygon style="fill-rule:evenodd;clip-rule:evenodd;fill:#FFFFFF;" points="415.361,455.871 406.048,398.001 399.895,398.001 
			409.37,455.871 		"/>
		<polygon style="fill-rule:evenodd;clip-rule:evenodd;fill:#FFFFFF;" points="351.331,455.871 360.644,398.001 354.661,398.001 
			345.178,455.871 		"/>
		<polygon style="fill-rule:evenodd;clip-rule:evenodd;fill:#CED4DF;" points="407.379,406.483 406.048,398.001 399.895,398.001 
			401.388,406.483 		"/>
		<polygon style="fill-rule:evenodd;clip-rule:evenodd;fill:#CED4DF;" points="359.313,406.483 360.644,398.001 354.661,398.001 
			353.16,406.483 		"/>
		<path style="fill-rule:evenodd;clip-rule:evenodd;fill:#F2705B;" d="M404.048,372.053H356.49c-4.322,0-7.821-3.323-7.982-7.484
			c-1.169-20.288-2.329-26.271-3.33-45.728c-0.162-3.492,1.831-6.652,5.161-7.982c19.287-7.483,40.575-7.483,59.863,0
			c3.33,1.331,5.321,4.491,5.159,7.982c-1.168,19.457-2.161,25.439-3.329,45.728C411.87,368.73,408.209,372.053,404.048,372.053
			L404.048,372.053z"/>
		<path style="fill-rule:evenodd;clip-rule:evenodd;fill:#65C5B8;" d="M406.153,452.211l0.831,4.322c0.169,0.999,1,1.669,1.83,1.669
			h6.814c1.169,0,2-1,1.83-2.161l-0.828-4.66c-0.17-1.499-1.501-2.66-3.162-2.66h-4.322
			C407.314,448.721,405.984,450.381,406.153,452.211L406.153,452.211z"/>
		<path style="fill-rule:evenodd;clip-rule:evenodd;fill:#65C5B8;" d="M343.687,451.212l-0.832,4.659
			c-0.168,1.163,0.663,2.161,1.823,2.161h6.821c1,0,1.661-0.661,1.83-1.662l0.661-4.16c0.339-1.83-1.16-3.661-3.152-3.661h-4.331
			C345.178,448.721,343.847,449.72,343.687,451.212L343.687,451.212z"/>
		<path style="fill-rule:evenodd;clip-rule:evenodd;fill:#FFFFFF;" d="M337.122,385.026v-32.93h-3.492v32.93
			c0,7.152,5.823,13.136,13.135,13.136h10.645v-3.492h-10.645C341.444,394.51,337.122,390.348,337.122,385.026L337.122,385.026z"/>
		<rect x="333.63" y="352.104" style="fill-rule:evenodd;clip-rule:evenodd;fill:#CED4DF;" width="3.492" height="6.482"/>
		<path style="fill-rule:evenodd;clip-rule:evenodd;fill:#FFFFFF;" d="M423.417,385.026v-32.93h3.491v32.93
			c0,7.152-5.812,13.136-13.134,13.136H403.13v-3.492h10.644C419.094,394.51,423.417,390.348,423.417,385.026L423.417,385.026z"/>
		<rect x="423.417" y="352.104" style="fill-rule:evenodd;clip-rule:evenodd;fill:#CED4DF;" width="3.491" height="6.482"/>
		<path style="fill-rule:evenodd;clip-rule:evenodd;fill:#FFCF5C;" d="M381.101,355.426h56.613c2.04,0,3.708-1.501,3.708-3.331l0,0
			c0-1.822-1.669-3.322-3.708-3.322h-56.799c-0.217,0-0.435,0.015-0.644,0.048c-0.21-0.033-0.42-0.048-0.646-0.048h-56.79
			c-2.047,0-3.718,1.5-3.718,3.322l0,0c0,1.83,1.67,3.331,3.718,3.331h56.606c0.29,0,0.563-0.024,0.831-0.073
			C380.536,355.402,380.81,355.426,381.101,355.426L381.101,355.426z"/>
		<path style="fill-rule:evenodd;clip-rule:evenodd;fill:#F2705B;" d="M416.691,401.992h-72.844c-1.16,0-2.161-0.999-2.161-2.161
			v-6.822c0-1.161,1-2.161,2.161-2.161h72.675c1.162,0,2.161,1,2.161,2.161v6.822C418.853,400.993,417.854,401.992,416.691,401.992
			L416.691,401.992z"/>
	</g>
	<g>
		<path style="fill-rule:evenodd;clip-rule:evenodd;fill:#96D0A5;" d="M481.877,618.294c0-58.323-47.277-105.599-105.599-105.599
			c-58.323,0-105.598,47.275-105.598,105.599c0,58.322,47.275,105.598,105.598,105.598
			C434.6,723.892,481.877,676.616,481.877,618.294L481.877,618.294z"/>
		<path style="fill-rule:evenodd;clip-rule:evenodd;fill:#48423D;" d="M376.294,563.671c-7.844,0-14.207-6.361-14.207-14.204
			c0-7.857,6.363-14.219,14.207-14.219c7.854,0,14.217,6.361,14.217,14.219C390.511,557.31,384.148,563.671,376.294,563.671
			L376.294,563.671z M376.294,530.354c-10.546,0-19.102,8.556-19.102,19.113c0,10.545,8.555,19.1,19.102,19.1
			c10.555,0,19.11-8.555,19.11-19.1C395.404,538.909,386.849,530.354,376.294,530.354L376.294,530.354z"/>
		<path style="fill-rule:evenodd;clip-rule:evenodd;fill:#D09262;" d="M346.355,632.446v59.031h-2.79
			c-6.483,0-12.401-2.348-16.966-6.251c-5.627-4.795-9.199-11.942-9.199-19.908v-29.261c0-1.992,1.62-3.611,3.621-3.611H346.355z"/>
		<path style="fill-rule:evenodd;clip-rule:evenodd;fill:#D09262;" d="M435.633,636.058v29.261c0,7.983-3.58,15.137-9.224,19.926
			l0.007,0.008c-4.563,3.888-10.482,6.226-16.948,6.226h-2.792v-59.031h25.335C434.013,632.446,435.633,634.065,435.633,636.058
			L435.633,636.058z"/>
		<path style="fill-rule:evenodd;clip-rule:evenodd;fill:#5AA973;" d="M437.552,637.123H315.005v-11.888
			c0-3.25,2.635-5.885,5.887-5.885h110.775c3.257,0,5.885,2.635,5.885,5.885V637.123z"/>
		<rect x="435.44" y="637.123" style="fill-rule:evenodd;clip-rule:evenodd;fill:#76B096;" width="2.112" height="2.15"/>
		<path style="fill-rule:evenodd;clip-rule:evenodd;fill:#DE8C57;" d="M441.253,648.837L441.253,648.837
			c-2.371-2.362-3.701-5.578-3.701-8.926v-2.788h-2.112v3.691c0,3.354,1.331,6.562,3.703,8.927l0.604,0.603
			c0.306,0.315,0.773,0.404,1.178,0.227C441.616,650.28,441.787,649.368,441.253,648.837L441.253,648.837z"/>
		<path style="fill-rule:evenodd;clip-rule:evenodd;fill:#873F2D;" d="M437.552,640.01L437.552,640.01v-7.138
			c1.419,0,2.572,1.144,2.572,2.563v2.009C440.124,638.861,438.971,640.01,437.552,640.01L437.552,640.01z"/>
		<path style="fill-rule:evenodd;clip-rule:evenodd;fill:#873F2D;" d="M315.005,640.01L315.005,640.01v-7.138
			c-1.419,0-2.564,1.144-2.564,2.563v2.009C312.441,638.861,313.586,640.01,315.005,640.01L315.005,640.01z"/>
		<path style="fill-rule:evenodd;clip-rule:evenodd;fill:#DE8C57;" d="M311.303,648.837L311.303,648.837
			c2.372-2.362,3.702-5.578,3.702-8.926v-2.788h2.113v3.691c0,3.354-1.331,6.562-3.702,8.927l-0.596,0.603
			c-0.315,0.315-0.775,0.404-1.179,0.227C310.949,650.28,310.771,649.368,311.303,648.837L311.303,648.837z"/>
		<path style="fill-rule:evenodd;clip-rule:evenodd;fill:#E5BD8A;" d="M427.352,581.942v98.933c0,1.562-0.339,3.038-0.943,4.369
			l0.007,0.008c-1.669,3.668-5.369,6.226-9.667,6.226h-80.901c-4.306,0-8.014-2.565-9.668-6.251
			c-0.604-1.329-0.935-2.805-0.935-4.352v-98.933c0-18.155,14.715-32.873,32.874-32.873l36.351-0.007
			C412.628,549.063,427.352,563.787,427.352,581.942L427.352,581.942z"/>
		<path style="fill-rule:evenodd;clip-rule:evenodd;fill:#5AA973;" d="M427.352,578.896v2.411c0,1.563-0.339,3.038-0.943,4.37
			l0.007,0.008c-1.669,3.676-5.369,6.225-9.667,6.225h-80.901c-4.306,0-8.014-2.564-9.668-6.25c-0.596-1.307-0.927-2.76-0.935-4.281
			v-0.071v-2.411c0-18.16,14.715-32.883,32.874-32.883h36.351C412.628,546.014,427.352,560.736,427.352,578.896L427.352,578.896z"/>
		<path style="fill-rule:evenodd;clip-rule:evenodd;fill:#48423D;" d="M424.296,579.888v1.389l-0.097,0.087l0,0
			c-0.049-17.369-14.135-31.434-31.52-31.434h-34.552c-12.458,0-23.23,7.228-28.343,17.727c-0.823,1.677-1.499,3.443-2.007,5.265
			c-0.525,1.879-0.879,3.821-1.056,5.823c0.08-2.3,0.411-4.534,0.958-6.679c0.437-1.685,0.992-3.314,1.687-4.879
			c4.878-11.085,15.965-18.827,28.857-18.827h34.544C410.184,548.359,424.296,562.478,424.296,579.888L424.296,579.888z"/>
		<path style="fill-rule:evenodd;clip-rule:evenodd;fill:#48423D;" d="M331.946,576.792l-0.977,0.516
			c-0.403,0.209-0.926-0.048-1.145-0.556l-1.791-4.192l-0.241-0.566l0.976-2.59l3.378,6.121
			C332.438,575.99,332.34,576.582,331.946,576.792L331.946,576.792z"/>
		<path style="fill-rule:evenodd;clip-rule:evenodd;fill:#DBDEE0;" d="M329.745,572.363l0.523,1.025
			c0.185,0.371,0.097,0.797-0.201,0.959l0,0c-0.298,0.153-0.694-0.016-0.888-0.39l-0.523-1.02c-0.185-0.373-0.097-0.8,0.203-0.96
			l0,0C329.156,571.823,329.551,571.993,329.745,572.363L329.745,572.363z"/>
		<path style="fill-rule:evenodd;clip-rule:evenodd;fill:#48423D;" d="M352.281,623.85L352.281,623.85
			c-2.129,0-3.862-1.743-3.862-3.887c0-24.296,0-39.439,0-63.732c2.459-0.784,5.056-1.292,7.731-1.476c0,24.788,0,40.423,0,65.208
			C356.151,622.106,354.418,623.85,352.281,623.85L352.281,623.85z"/>
		<path style="fill-rule:evenodd;clip-rule:evenodd;fill:#48423D;" d="M399.606,623.85L399.606,623.85
			c2.128,0,3.862-1.743,3.862-3.887v-28.545l0,0v-26.44c-2.476-0.677-5.064-1.063-7.734-1.145v27.585l0,0v28.545
			C395.735,622.106,397.469,623.85,399.606,623.85L399.606,623.85z"/>
		<path style="fill-rule:evenodd;clip-rule:evenodd;fill:#A77E2C;" d="M357.087,617.259h-9.596c-1.41,0-2.564-1.151-2.564-2.563
			v-3.006c0-1.423,1.145-2.565,2.564-2.565h9.596c1.411,0,2.564,1.143,2.564,2.565v3.006
			C359.651,616.107,358.498,617.259,357.087,617.259L357.087,617.259z"/>
		<path style="fill-rule:evenodd;clip-rule:evenodd;fill:#E7A722;" d="M357.087,615.891h-9.596c-1.41,0-2.564-1.154-2.564-2.565
			v-3.008c0-1.417,1.145-2.563,2.564-2.563h9.596c1.411,0,2.564,1.146,2.564,2.563v3.008
			C359.651,614.736,358.498,615.891,357.087,615.891L357.087,615.891z"/>
		<path style="fill-rule:evenodd;clip-rule:evenodd;fill:#A4762B;" d="M358.78,616.618c-0.821-0.235-1.628-0.478-2.409-0.728h0.717
			c1.411,0,2.564-1.154,2.564-2.565v1.371C359.651,615.464,359.313,616.149,358.78,616.618L358.78,616.618z"/>
		<path style="fill-rule:evenodd;clip-rule:evenodd;fill:#A77E2C;" d="M405.104,617.259h-9.596c-1.411,0-2.564-1.151-2.564-2.563
			v-3.006c0-1.423,1.153-2.565,2.564-2.565h9.596c1.411,0,2.564,1.143,2.564,2.565v3.006
			C407.668,616.107,406.516,617.259,405.104,617.259L405.104,617.259z"/>
		<path style="fill-rule:evenodd;clip-rule:evenodd;fill:#E7A722;" d="M405.104,615.891h-9.596c-1.411,0-2.564-1.154-2.564-2.565
			v-3.008c0-1.417,1.153-2.563,2.564-2.563h9.596c1.411,0,2.564,1.146,2.564,2.563v3.008
			C407.668,614.736,406.516,615.891,405.104,615.891L405.104,615.891z"/>
		<path style="fill-rule:evenodd;clip-rule:evenodd;fill:#A4762B;" d="M406.798,616.618c-0.823-0.235-1.621-0.478-2.411-0.728h0.718
			c1.411,0,2.564-1.154,2.564-2.565v1.371C407.668,615.464,407.33,616.149,406.798,616.618L406.798,616.618z"/>
		<path style="fill-rule:evenodd;clip-rule:evenodd;fill:#48423D;" d="M348.419,591.91v-44.436c2.459-0.768,5.056-1.243,7.731-1.397
			v45.833H348.419z"/>
		<path style="fill-rule:evenodd;clip-rule:evenodd;fill:#48423D;" d="M403.469,591.91v-0.492l0,0v-44.155
			c-2.469-0.702-5.057-1.12-7.734-1.218v45.373l0,0v0.492H403.469z"/>
		<path style="fill-rule:evenodd;clip-rule:evenodd;fill:#D09262;" d="M400.59,625.882h-48.583c-5.056,0-9.152,4.095-9.152,9.152
			v37.601c0,5.053,4.096,9.151,9.152,9.151h48.583c5.047,0,9.144-4.099,9.144-9.151v-37.601
			C409.733,629.977,405.637,625.882,400.59,625.882L400.59,625.882z"/>
		<path style="fill-rule:evenodd;clip-rule:evenodd;fill:#8E4B3E;" d="M342.855,665.6v7.035c0,5.053,4.096,9.151,9.152,9.151h48.583
			c5.047,0,9.144-4.099,9.144-9.151V665.6v-0.004L342.855,665.6z"/>
		<path style="fill-rule:evenodd;clip-rule:evenodd;fill:#48423D;" d="M407.459,640.7L407.459,640.7c0,0.686-0.563,1.243-1.25,1.243
			h-59.821c-0.694,0-1.25-0.558-1.25-1.243c0-0.69,0.556-1.247,1.25-1.247h59.821C406.896,639.453,407.459,640.01,407.459,640.7
			L407.459,640.7z"/>
		<path style="fill-rule:evenodd;clip-rule:evenodd;fill:#48423D;" d="M351.25,651.306h-2.613c-1.065,0-1.903-0.912-1.807-1.977
			l0.767-8.709l0.096-1.177h4.492l0.106,1.177l0.757,8.709C353.145,650.394,352.313,651.306,351.25,651.306L351.25,651.306z"/>
		<path style="fill-rule:evenodd;clip-rule:evenodd;fill:#DBDEE0;" d="M351.387,641.822v2.202c0,0.796-0.645,1.45-1.444,1.45l0,0
			c-0.806,0-1.45-0.654-1.45-1.45v-2.202c0-0.798,0.645-1.451,1.45-1.451l0,0C350.742,640.371,351.387,641.024,351.387,641.822
			L351.387,641.822z"/>
		<path style="fill-rule:evenodd;clip-rule:evenodd;fill:#E7A722;" d="M382.762,678.325h-12.934c-1.081,0-1.952-0.88-1.952-1.961
			v-5.353c0-1.081,0.872-1.96,1.952-1.96h12.934c1.08,0,1.959,0.879,1.959,1.96v5.353
			C384.721,677.445,383.842,678.325,382.762,678.325L382.762,678.325z"/>
		<rect x="371.263" y="671.64" style="fill-rule:evenodd;clip-rule:evenodd;fill:#FFFFFF;" width="10.386" height="3.904"/>
		<polygon style="fill-rule:evenodd;clip-rule:evenodd;fill:#48423D;" points="371.263,671.64 371.263,675.544 371.9,675.544 
			371.9,672.342 381.012,672.342 381.012,675.544 381.648,675.544 381.648,671.64 		"/>
		<path style="fill-rule:evenodd;clip-rule:evenodd;fill:#48423D;" d="M390.389,575.727L390.389,575.727
			c0,0.314-0.25,0.563-0.564,0.563h-27.054c-0.313,0-0.564-0.248-0.564-0.563c0-0.315,0.251-0.565,0.564-0.565h27.054
			C390.139,575.161,390.389,575.411,390.389,575.727L390.389,575.727z"/>
		<path style="fill-rule:evenodd;clip-rule:evenodd;fill:#48423D;" d="M364.973,580.523h-1.185c-0.485,0-0.855-0.411-0.814-0.894
			l0.347-3.943l0.04-0.525h2.032l0.048,0.525l0.346,3.943C365.829,580.112,365.449,580.523,364.973,580.523L364.973,580.523z"/>
		<path style="fill-rule:evenodd;clip-rule:evenodd;fill:#DBDEE0;" d="M365.038,576.234v0.989c0,0.366-0.297,0.664-0.661,0.664l0,0
			c-0.363,0-0.652-0.298-0.652-0.664v-0.989c0-0.363,0.289-0.653,0.652-0.653l0,0C364.74,575.581,365.038,575.871,365.038,576.234
			L365.038,576.234z"/>
	</g>
	<g>
		<path style="fill-rule:evenodd;clip-rule:evenodd;fill:#324A5E;" d="M729.312,145.109c0-58.315-47.275-105.599-105.6-105.599
			c-58.321,0-105.599,47.283-105.599,105.599c0,58.322,47.277,105.605,105.599,105.605
			C682.036,250.714,729.312,203.431,729.312,145.109L729.312,145.109z"/>
		<rect x="570.503" y="76.44" style="fill-rule:evenodd;clip-rule:evenodd;fill:#FFFFFF;" width="102.606" height="137.481"/>
		<rect x="578.349" y="89.479" style="fill-rule:evenodd;clip-rule:evenodd;fill:#324A5E;" width="5.402" height="10.281"/>
		<rect x="565.735" y="91.914" style="fill-rule:evenodd;clip-rule:evenodd;fill:#E5E8EC;" width="15.265" height="5.307"/>
		<rect x="578.349" y="114.71" style="fill-rule:evenodd;clip-rule:evenodd;fill:#324A5E;" width="5.402" height="10.28"/>
		<rect x="565.735" y="117.249" style="fill-rule:evenodd;clip-rule:evenodd;fill:#E5E8EC;" width="15.265" height="5.297"/>
		<rect x="578.349" y="140.037" style="fill-rule:evenodd;clip-rule:evenodd;fill:#324A5E;" width="5.402" height="10.289"/>
		<rect x="565.735" y="142.479" style="fill-rule:evenodd;clip-rule:evenodd;fill:#E5E8EC;" width="15.265" height="5.297"/>
		<rect x="578.349" y="165.266" style="fill-rule:evenodd;clip-rule:evenodd;fill:#324A5E;" width="5.402" height="10.281"/>
		<rect x="565.735" y="167.702" style="fill-rule:evenodd;clip-rule:evenodd;fill:#E5E8EC;" width="15.265" height="5.305"/>
		<rect x="578.349" y="190.497" style="fill-rule:evenodd;clip-rule:evenodd;fill:#324A5E;" width="5.402" height="10.281"/>
		<rect x="565.735" y="193.037" style="fill-rule:evenodd;clip-rule:evenodd;fill:#E5E8EC;" width="15.265" height="5.298"/>
		<rect x="673.109" y="113.194" style="fill-rule:evenodd;clip-rule:evenodd;fill:#96D0A5;" width="8.588" height="24.27"/>
		<rect x="673.109" y="139.98" style="fill-rule:evenodd;clip-rule:evenodd;fill:#F2705B;" width="8.588" height="24.278"/>
		<rect x="673.109" y="86.302" style="fill-rule:evenodd;clip-rule:evenodd;fill:#55BFE9;" width="8.588" height="24.271"/>
	</g>
	<g>
		<path style="fill-rule:evenodd;clip-rule:evenodd;fill:#324A5E;" d="M729.319,854.883c0-58.324-47.283-105.6-105.607-105.6
			c-58.321,0-105.599,47.275-105.599,105.6c0,58.32,47.277,105.606,105.599,105.606
			C682.036,960.489,729.319,913.203,729.319,854.883L729.319,854.883z"/>
		<polygon style="fill-rule:evenodd;clip-rule:evenodd;fill:#FFFFFF;" points="568.67,787.197 678.594,787.197 678.594,893.709 
			649.9,922.734 568.67,922.734 		"/>
		<path style="fill:#F2705B;" d="M615.536,851.551c1.896,0.646,3.309,1.693,4.242,3.143c0.918,1.461,1.386,4.891,1.386,10.274
			c0,3.993-0.458,7.097-1.371,9.298c-0.91,2.209-2.475,3.888-4.716,5.024c-2.232,1.161-5.097,1.731-8.588,1.731
			c-3.968,0-7.094-0.668-9.354-2.007c-2.264-1.329-3.757-2.975-4.466-4.921c-0.708-1.923-1.074-5.293-1.074-10.085v-3.976h12.531
			v8.183c0,2.188,0.121,3.573,0.388,4.155c0.259,0.596,0.839,0.894,1.725,0.894c0.976,0,1.622-0.37,1.929-1.127
			c0.314-0.742,0.466-2.694,0.466-5.841v-3.481c0-1.927-0.207-3.338-0.643-4.232c-0.437-0.886-1.081-1.468-1.928-1.751
			c-0.848-0.281-2.49-0.442-4.927-0.484v-7.313c2.975,0,4.806-0.111,5.515-0.337c0.702-0.234,1.21-0.718,1.517-1.493
			c0.314-0.766,0.466-1.959,0.466-3.596v-2.778c0-1.771-0.177-2.922-0.539-3.478c-0.373-0.563-0.928-0.842-1.692-0.842
			c-0.882,0-1.474,0.303-1.79,0.882c-0.332,0.587-0.485,1.845-0.485,3.773v4.119h-12.531v-4.279c0-4.799,1.104-8.034,3.298-9.717
			c2.194-1.686,5.678-2.532,10.46-2.532c5.974,0,10.032,1.159,12.167,3.508c2.128,2.338,3.201,5.594,3.201,9.748
			c0,2.813-0.387,4.854-1.145,6.106C618.802,849.365,617.456,850.51,615.536,851.551L615.536,851.551z M655.836,843.127h-12.523
			c0-2.357-0.023-3.841-0.079-4.445c-0.05-0.611-0.305-1.137-0.757-1.547c-0.443-0.412-1.066-0.624-1.829-0.624
			c-0.653,0-1.179,0.204-1.606,0.591c-0.41,0.395-0.661,0.895-0.719,1.517c-0.063,0.629-0.096,1.876-0.096,3.757v7.997
			c0.643-1.338,1.587-2.345,2.831-3.014c1.248-0.662,2.78-0.991,4.604-0.991c2.299,0,4.338,0.627,6.094,1.86
			c1.775,1.241,2.88,2.728,3.364,4.471c0.476,1.732,0.716,4.085,0.716,7.045v3.991c0,3.516-0.137,6.137-0.405,7.856
			c-0.271,1.715-0.979,3.305-2.158,4.755c-1.161,1.461-2.771,2.597-4.813,3.402c-2.039,0.807-4.418,1.211-7.129,1.211
			c-3.376,0-6.144-0.466-8.297-1.401c-2.152-0.93-3.814-2.269-4.989-4.019c-1.172-1.749-1.855-3.58-2.05-5.507
			c-0.201-1.918-0.299-5.661-0.299-11.207v-6.952c0-5.975,0.088-9.981,0.269-11.99c0.184-2.013,0.892-3.936,2.16-5.726
			c1.266-1.795,2.99-3.159,5.176-4.054c2.178-0.905,4.702-1.347,7.563-1.347c3.516,0,6.412,0.571,8.668,1.7
			c2.259,1.144,3.869,2.758,4.847,4.823C655.353,837.36,655.836,839.971,655.836,843.127L655.836,843.127z M643.313,858.768
			c0-1.774-0.199-2.992-0.593-3.646c-0.406-0.668-1.051-0.997-1.951-0.997c-0.882,0-1.526,0.319-1.931,0.942
			c-0.408,0.638-0.611,1.863-0.611,3.701v9.07c0,2.21,0.186,3.655,0.581,4.348c0.379,0.677,1.031,1.019,1.925,1.019
			c0.542,0,1.113-0.27,1.704-0.801c0.58-0.516,0.876-1.936,0.876-4.249V858.768z"/>
		<path style="fill-rule:evenodd;clip-rule:evenodd;fill:#E5E8EC;" d="M649.9,922.734l28.693-29.025h-23.375
			c-2.914,0-5.318,2.399-5.318,5.312V922.734z"/>
	</g>
	<g>
		<path style="fill-rule:evenodd;clip-rule:evenodd;fill:#A2D4DE;" d="M729.312,381.705c0-58.314-47.283-105.608-105.6-105.608
			c-58.306,0-105.599,47.294-105.599,105.608c0,58.307,47.293,105.6,105.599,105.6C682.028,487.304,729.312,440.011,729.312,381.705
			L729.312,381.705z"/>
		<path style="fill-rule:evenodd;clip-rule:evenodd;fill:#EEB87C;" d="M610.03,412.506c-0.311,5.572-1.566,9.248-3.13,12.377
			c-2.105,4.193-4.95,7.063-8.637,9.032c-11.973,10.579,1.536,9.659,25.241,23.504c25.284-14.33,38.242-12.708,25.736-23.142
			c-3.709-2.072-6.629-4.886-8.684-9.394c-1.429-3.136-2.524-7.015-2.816-12.377c0,0-9.385,7.282-15.222,6.16
			C616.68,417.547,610.03,412.506,610.03,412.506L610.03,412.506z"/>
		<polygon style="fill-rule:evenodd;clip-rule:evenodd;fill:#676767;" points="576.517,335.63 627.019,358.554 674.563,336.976 
			624.061,314.053 576.526,335.63 		"/>
		<path style="fill-rule:evenodd;clip-rule:evenodd;fill:#FDD098;" d="M623.913,348.492c-24.424,0-28.043,17.667-28.043,39.454
			c0,22.311,18.78,39.445,28.043,39.445c9.271,0,28.056-17.134,28.056-39.445C651.969,366.159,648.346,348.492,623.913,348.492
			L623.913,348.492z"/>
		<path style="fill-rule:evenodd;clip-rule:evenodd;fill:#FDD098;" d="M596.199,385.463c-1.298-4.854-3.072-4.854-3.82-3.621
			c-0.759,1.225,1.837,6.007,1.911,9.902c0.063,3.895,1.226,4.484,2.661,3.063C598.385,393.38,596.199,385.463,596.199,385.463
			L596.199,385.463z"/>
		<path style="fill-rule:evenodd;clip-rule:evenodd;fill:#E26868;" d="M613.974,411.24c0,0,6.021-2.982,7.827-2.982
			c0.807,0,1.752,1.04,2.112,1.04c0.371,0,1.307-1.04,2.112-1.04c1.815,0,7.838,2.982,7.838,2.982s-1.394,1.016-2.564,1.476
			c-2.828,1.105-5.03,2.105-7.386,2.105c-2.345,0-4.546-1-7.385-2.105C615.359,412.256,613.974,411.24,613.974,411.24
			L613.974,411.24z"/>
		<path style="fill-rule:evenodd;clip-rule:evenodd;fill:#211E1F;" d="M620.067,386.954c-0.442,3.999-3.951,10.739-9.966,11.023
			c-6.021,0.283-9.975-3.556-11.314-6.902c-1.328-3.354-1.934-8.603,2.268-10.661c4.2-2.064,10.377-2.064,14.82-0.362
			C620.309,381.745,620.366,384.284,620.067,386.954L620.067,386.954z M631.96,380.051c4.445-1.702,10.622-1.702,14.822,0.362
			c4.199,2.058,3.588,7.307,2.258,10.661c-1.33,3.346-5.291,7.185-11.306,6.902c-6.016-0.284-9.531-7.024-9.975-11.023
			C627.471,384.284,627.519,381.745,631.96,380.051L631.96,380.051z M623.913,381.197v4.442c0.719,0,1.244,0.436,1.702,1.314
			c0.452,0.879,1.483,4.266,1.848,4.967c0.362,0.693,2.055,4.726,6.813,6.362c4.75,1.629,8.661,1.024,12.145-1.79
			c3.48-2.814,4.725-7.637,5.24-9.871c0.508-2.241,1.969-2.726,2.233-2.999c0.274-0.274,0.364-0.968,0.364-1.791
			c0-0.814,0.03-2.12-0.146-2.241c-0.188-0.122-4.15-2.387-9.848-2.782c-5.693-0.394-11.141,0.396-14.714,2.483
			C625.979,381.381,625.341,381.197,623.913,381.197c-1.417,0-2.056,0.184-5.629-1.903c-3.571-2.088-9.022-2.877-14.712-2.483
			c-5.695,0.396-9.663,2.661-9.848,2.782c-0.178,0.121-0.151,1.426-0.151,2.241c0,0.823,0.094,1.517,0.36,1.791
			c0.274,0.273,1.726,0.758,2.241,2.999c0.518,2.233,1.76,7.056,5.243,9.871c3.484,2.814,7.384,3.419,12.144,1.79
			c4.748-1.636,6.452-5.668,6.813-6.362c0.362-0.701,1.396-4.088,1.846-4.967c0.453-0.878,0.983-1.314,1.693-1.314V381.197z"/>
		<path style="fill-rule:evenodd;clip-rule:evenodd;fill:#FDD098;" d="M651.781,385.905c1.162-4.322,2.741-4.322,3.41-3.224
			c0.677,1.096-1.645,5.361-1.7,8.829c-0.065,3.476-1.099,3.999-2.371,2.734C649.838,392.978,651.781,385.905,651.781,385.905
			L651.781,385.905z"/>
		<path style="fill-rule:evenodd;clip-rule:evenodd;fill:#413432;" d="M623.913,333.567c15.749,0,26.216,7.917,29.224,22.319
			c4.338,20.796-1.152,30.172-1.735,32.061c0,0-1.828-25.263-27.488-33.181c-25.658,7.918-27.478,33.181-27.478,33.181
			c-0.591-1.888-6.073-11.265-1.735-32.061C597.706,341.484,608.175,333.567,623.913,333.567L623.913,333.567z"/>
		<path style="fill-rule:evenodd;clip-rule:evenodd;fill:#807E7E;" d="M597.21,337.428c12.44-8.345,42.734-7.983,53.839,0.443
			l1.143,13.957c-19.367-5.063-36.462-4.805-56.266,0.315l1.284-14.724V337.428L597.21,337.428z"/>
		<path style="fill-rule:evenodd;clip-rule:evenodd;fill:#FFFFFF;" d="M585.603,332.259l0.091,27.295v0.846h-1.62v-0.846v-26.771
			C584.121,331.219,585.491,331.001,585.603,332.259L585.603,332.259z"/>
		<path style="fill-rule:evenodd;clip-rule:evenodd;fill:#FCB81D;" d="M581.896,364.538c0,7.37-1.545,13.716-1.636,14.143
			c-0.082,0.42,1.401,1.813,1.695,0.42c0.289-1.388-0.037,0.031,1.288,0.12c1.298,0.089,1.571-0.547,1.581-0.572
			c0.008,0.025,0.272,0.661,1.57,0.572c1.314-0.089,1.001-1.508,1.29-0.12c0.291,1.394,1.775,0,1.694-0.42
			c-0.088-0.427-1.639-6.773-1.639-14.143c-0.063-2.83-1.175-4.16-2.916-4.564C583.072,360.378,581.969,361.708,581.896,364.538
			L581.896,364.538z"/>
		<path style="fill-rule:evenodd;clip-rule:evenodd;fill:#807E7E;" d="M584.814,359.974c2.902,0,2.985,1.838,2.838,3.548
			c-0.637-0.556-1.668-0.919-2.838-0.919c-1.161,0-2.194,0.363-2.829,0.919C581.88,361.538,581.918,359.974,584.814,359.974
			L584.814,359.974z"/>
		<path style="fill-rule:evenodd;clip-rule:evenodd;fill:#FFFFFF;" d="M641.549,424.278c9.353,9.936,20.391,14.296,36.504,16.636
			c11.845,1.718,17.4,9.16,19.931,15.837c-19.079,18.885-45.307,30.553-74.271,30.553c-28.958,0-55.193-11.668-74.271-30.553
			c2.528-6.677,8.094-14.119,19.933-15.837c16.11-2.339,27.147-6.7,36.502-16.636l17.836,15.772L641.549,424.278z"/>
		<path style="fill-rule:evenodd;clip-rule:evenodd;fill:#141313;" d="M658.78,436.036c5.62,2.283,11.95,3.814,19.272,4.878
			c11.845,1.718,17.4,9.16,19.931,15.837c-18.593,18.408-43.99,29.947-72.079,30.521L658.78,436.036z M621.528,487.271
			l-32.884-51.236c-5.612,2.283-11.94,3.814-19.271,4.878c-11.839,1.718-17.404,9.16-19.933,15.837
			C568.034,475.159,593.436,486.698,621.528,487.271L621.528,487.271z"/>
		<path style="fill-rule:evenodd;clip-rule:evenodd;fill:#699690;" d="M598.149,430.973l-0.512-0.653l0.53,0.634
			C598.158,430.964,598.149,430.964,598.149,430.973L598.149,430.973z"/>
		<path style="fill-rule:evenodd;clip-rule:evenodd;fill:#D2D2D2;" d="M618.845,457.371l-20.695-26.398
			c0-0.009,0.009-0.009,0.019-0.019l20.677,24.861l4.867-15.765L618.845,457.371z"/>
		<polygon style="fill-rule:evenodd;clip-rule:evenodd;fill:#F3F0F1;" points="605.876,424.278 597.638,430.32 618.845,455.815 
			623.712,440.051 		"/>
		<path style="fill-rule:evenodd;clip-rule:evenodd;fill:#699690;" d="M649.283,430.973c-1.525-1.041-2.984-2.18-4.405-3.412
			l4.911,2.759L649.283,430.973z"/>
		<path style="fill-rule:evenodd;clip-rule:evenodd;fill:#CAC8C4;" d="M628.582,457.371l-4.87-17.32
			c12.184,0,17.837-10.869,17.837-14.297v-0.072l3.329,1.879c1.421,1.232,2.88,2.371,4.405,3.412L628.582,457.371z"/>
		<path style="fill-rule:evenodd;clip-rule:evenodd;fill:#BE977C;" d="M623.712,440.051l17.538-14.538l0.299,0.169v0.072
			C641.549,429.182,635.896,440.051,623.712,440.051L623.712,440.051z"/>
		<polygon style="fill-rule:evenodd;clip-rule:evenodd;fill:#F3F0F1;" points="641.549,424.278 649.789,430.32 628.582,455.815 
			623.712,440.051 		"/>
	</g>
	<g>
		<path style="fill-rule:evenodd;clip-rule:evenodd;fill:#143D55;" d="M729.319,618.294c0-58.323-47.283-105.599-105.607-105.599
			c-58.321,0-105.599,47.275-105.599,105.599c0,58.322,47.277,105.598,105.599,105.598
			C682.036,723.892,729.319,676.616,729.319,618.294L729.319,618.294z"/>
		<polygon style="fill-rule:evenodd;clip-rule:evenodd;fill:#FFFFFF;" points="549.764,566.944 615.415,566.944 615.415,630.565 
			598.279,647.901 549.764,647.901 		"/>
		<polygon style="fill:#F4826A;" points="573.099,591.795 592.08,591.795 592.08,598.039 581.236,598.039 581.236,604.004 
			591.453,604.004 591.453,609.932 581.236,609.932 581.236,623.051 573.099,623.051 		"/>
		<polygon style="fill-rule:evenodd;clip-rule:evenodd;fill:#FFFFFF;" points="630.785,605.816 696.437,605.816 696.437,669.44 
			679.301,686.777 630.785,686.777 		"/>
		<path style="fill:#AACA57;" d="M659.416,630.671l4.646,31.261h-8.306l-0.437-5.609h-2.936l-0.433,5.609h-8.412l4.122-31.261
			H659.416z M655.104,650.79c-0.388-3.548-0.8-7.937-1.234-13.168c-0.806,6.007-1.313,10.392-1.524,13.168H655.104z
			 M665.109,643.992h6.911v-6.959h4.7v6.959h6.96v4.7h-6.96v6.92h-4.7v-6.92h-6.911V643.992z"/>
		<path style="fill-rule:evenodd;clip-rule:evenodd;fill:#FFCF5C;" d="M638.146,549.601c17.346,4.396,28.495,20.829,26.827,38.1
			l-6.249-8.659c-0.808-1.112-2.341-1.37-3.46-0.557c-1.08,0.783-1.348,2.282-0.614,3.379c0.023,0.031,0.035,0.049,0.051,0.079
			l9.57,13.289c0.79,1.089,2.275,1.363,3.388,0.612l0.151-0.097c0.032-0.021,0.048-0.03,0.079-0.048l0.009-0.016l0,0l13.145-9.468
			c1.114-0.806,1.363-2.36,0.565-3.458c-0.807-1.121-2.346-1.371-3.462-0.565l-8.24,5.944c0.849-8.563-1.063-17.144-5.556-24.691
			c-5.563-9.354-14.45-15.98-24.987-18.642c-14.496-3.67-29.818,0.879-39.961,11.861c-0.799,0.862-0.866,2.113-0.243,3.05
			c0.113,0.167,0.227,0.313,0.388,0.45c1.008,0.912,2.58,0.862,3.49-0.146C611.965,550.374,625.416,546.37,638.146,549.601
			L638.146,549.601z"/>
		<path style="fill-rule:evenodd;clip-rule:evenodd;fill:#E5E8EC;" d="M679.301,686.777l17.136-17.337H682.47
			c-1.733,0-3.169,1.428-3.169,3.167V686.777z"/>
		<path style="fill-rule:evenodd;clip-rule:evenodd;fill:#E5E8EC;" d="M598.279,647.901l17.136-17.336H601.45
			c-1.737,0-3.171,1.428-3.171,3.17V647.901z"/>
	</g>
	<g>
		<path style="fill-rule:evenodd;clip-rule:evenodd;fill:#65C5B8;" d="M234.442,145.109c0-58.324-47.275-105.599-105.598-105.599
			c-58.322,0-105.597,47.275-105.597,105.599c0,58.322,47.275,105.605,105.597,105.605
			C187.167,250.714,234.442,203.431,234.442,145.109L234.442,145.109z"/>
		<rect x="73.499" y="78.972" style="fill-rule:evenodd;clip-rule:evenodd;fill:#324A5E;" width="110.702" height="132.281"/>
		<path style="fill-rule:evenodd;clip-rule:evenodd;fill:#F4826A;" d="M123.499,120.144c1.542,0,2.807,1.257,2.807,2.806v11.402
			c0,1.539-1.265,2.806-2.807,2.806c-11.167,0-22.328,0-33.495,0c-1.548,0-2.806-1.267-2.806-2.806V122.95
			c0-1.549,1.258-2.806,2.806-2.806C101.17,120.144,112.332,120.144,123.499,120.144L123.499,120.144z"/>
		<path style="fill-rule:evenodd;clip-rule:evenodd;fill:#FFCF5C;" d="M134.192,120.144h11.401c1.54,0,2.805,1.257,2.805,2.806
			v11.402c0,1.539-1.265,2.806-2.805,2.806h-11.401c-1.542,0-2.807-1.267-2.807-2.806V122.95
			C131.393,121.401,132.65,120.144,134.192,120.144L134.192,120.144z"/>
		<path style="fill-rule:evenodd;clip-rule:evenodd;fill:#F4826A;" d="M156.292,120.144h11.395c1.548,0,2.805,1.257,2.805,2.806
			v11.402c0,1.539-1.257,2.806-2.805,2.806h-11.395c-1.547,0-2.804-1.267-2.804-2.806V122.95
			C153.488,121.401,154.745,120.144,156.292,120.144L156.292,120.144z"/>
		<path style="fill-rule:evenodd;clip-rule:evenodd;fill:#FFFFFF;" d="M90.004,141.755h11.401c1.54,0,2.806,1.266,2.806,2.805
			v11.393c0,1.548-1.266,2.815-2.806,2.815H90.004c-1.548,0-2.806-1.267-2.806-2.807V144.56
			C87.198,143.021,88.456,141.755,90.004,141.755L90.004,141.755z"/>
		<path style="fill-rule:evenodd;clip-rule:evenodd;fill:#FFFFFF;" d="M112.098,141.755h11.401c1.542,0,2.807,1.266,2.807,2.805
			v11.393c0,1.548-1.265,2.815-2.807,2.815h-11.401c-1.541,0-2.808-1.267-2.808-2.807V144.56
			C109.29,143.021,110.557,141.755,112.098,141.755L112.098,141.755z"/>
		<path style="fill-rule:evenodd;clip-rule:evenodd;fill:#FFFFFF;" d="M134.192,141.755h11.401c1.54,0,2.805,1.266,2.805,2.805
			v11.393c0,1.548-1.265,2.815-2.805,2.815h-11.401c-1.542,0-2.807-1.267-2.807-2.807V144.56
			C131.393,143.021,132.65,141.755,134.192,141.755L134.192,141.755z"/>
		<path style="fill-rule:evenodd;clip-rule:evenodd;fill:#FFFFFF;" d="M156.292,141.755h11.395c1.548,0,2.805,1.266,2.805,2.805
			v11.393c0,1.548-1.257,2.815-2.805,2.815h-11.395c-1.547,0-2.804-1.267-2.804-2.807V144.56
			C153.488,143.021,154.745,141.755,156.292,141.755L156.292,141.755z"/>
		<path style="fill-rule:evenodd;clip-rule:evenodd;fill:#FFFFFF;" d="M90.004,163.365h11.401c1.54,0,2.806,1.257,2.806,2.805
			v11.401c0,1.541-1.266,2.798-2.806,2.798H90.004c-1.548,0-2.806-1.257-2.806-2.798V166.17
			C87.198,164.622,88.456,163.365,90.004,163.365L90.004,163.365z"/>
		<path style="fill-rule:evenodd;clip-rule:evenodd;fill:#FFFFFF;" d="M112.098,163.365h11.401c1.542,0,2.807,1.257,2.807,2.805
			v11.401c0,1.541-1.265,2.798-2.807,2.798h-11.401c-1.541,0-2.808-1.257-2.808-2.798V166.17
			C109.29,164.622,110.557,163.365,112.098,163.365L112.098,163.365z"/>
		<path style="fill-rule:evenodd;clip-rule:evenodd;fill:#FFFFFF;" d="M134.192,163.365h11.401c1.54,0,2.805,1.257,2.805,2.805
			v11.401c0,1.541-1.265,2.798-2.805,2.798h-11.401c-1.542,0-2.807-1.257-2.807-2.798V166.17
			C131.393,164.622,132.65,163.365,134.192,163.365L134.192,163.365z"/>
		<path style="fill-rule:evenodd;clip-rule:evenodd;fill:#FFFFFF;" d="M90.004,184.974h11.401c1.54,0,2.806,1.258,2.806,2.806
			v11.394c0,1.548-1.266,2.807-2.806,2.807H90.004c-1.548,0-2.806-1.258-2.806-2.807V187.78
			C87.198,186.232,88.456,184.974,90.004,184.974L90.004,184.974z"/>
		<path style="fill-rule:evenodd;clip-rule:evenodd;fill:#FFFFFF;" d="M112.098,184.974h11.401c1.542,0,2.807,1.258,2.807,2.806
			v11.394c0,1.548-1.265,2.807-2.807,2.807h-11.401c-1.541,0-2.808-1.258-2.808-2.807V187.78
			C109.29,186.232,110.557,184.974,112.098,184.974L112.098,184.974z"/>
		<path style="fill-rule:evenodd;clip-rule:evenodd;fill:#FFFFFF;" d="M134.192,184.974h11.401c1.54,0,2.805,1.258,2.805,2.806
			v11.394c0,1.548-1.265,2.807-2.805,2.807h-11.401c-1.542,0-2.807-1.258-2.807-2.807V187.78
			C131.393,186.232,132.65,184.974,134.192,184.974L134.192,184.974z"/>
		<path style="fill-rule:evenodd;clip-rule:evenodd;fill:#F7B34C;" d="M170.492,199.174c0,1.548-1.257,2.807-2.805,2.807h-11.395
			c-1.547,0-2.813-1.258-2.813-2.807c0-11.007,0-21.981,0-33.004c0.009-1.548,1.266-2.805,2.813-2.805h11.395
			c1.548,0,2.805,1.265,2.805,2.805C170.492,177.192,170.492,188.167,170.492,199.174L170.492,199.174z"/>
		<rect x="81.013" y="87.769" style="fill-rule:evenodd;clip-rule:evenodd;fill:#E5E8EC;" width="95.665" height="21.152"/>
		<path style="fill-rule:evenodd;clip-rule:evenodd;fill:#324A5E;" d="M166.833,91.802c1.2,0,2.298,0.491,3.086,1.281l0,0
			l0.009,0.008c0.79,0.791,1.282,1.887,1.282,3.081v3.2c0,1.203-0.492,2.3-1.282,3.089c-0.797,0.791-1.887,1.292-3.095,1.292
			c-1.202,0-2.291-0.5-3.082-1.292h-0.007c-0.791-0.798-1.282-1.886-1.282-3.089v-3.2c0-1.201,0.492-2.298,1.282-3.088
			c0.79-0.791,1.887-1.281,3.096-1.281H166.833L166.833,91.802z M168.814,94.188L168.814,94.188
			c-0.508-0.499-1.209-0.822-1.982-0.822c-0.767,0-1.468,0.323-1.978,0.831c-0.507,0.508-0.83,1.209-0.83,1.975v3.2
			c0,0.776,0.323,1.477,0.823,1.985c0.517,0.507,1.217,0.823,1.984,0.823c0.772,0,1.474-0.316,1.982-0.823
			c0.508-0.508,0.824-1.208,0.824-1.985V96.18c0-0.773-0.316-1.475-0.824-1.983l0,0V94.188z"/>
	</g>
	<g>
		<path style="fill-rule:evenodd;clip-rule:evenodd;fill:#55BFE9;" d="M234.442,854.883c0,58.32-47.275,105.606-105.598,105.606
			c-58.322,0-105.597-47.286-105.597-105.599c0-58.326,47.275-105.607,105.597-105.607
			C187.167,749.283,234.442,796.564,234.442,854.883L234.442,854.883z"/>
		<path style="fill-rule:evenodd;clip-rule:evenodd;fill:#F0F2F6;" d="M189.466,831.698c-5.686-8.925-5.71-20.306-0.089-29.342
			H84.303c-8.096,0-14.627,6.533-14.627,14.627c0,7.999,6.621,14.627,14.627,14.715H189.466z"/>
		<path style="fill-rule:evenodd;clip-rule:evenodd;fill:#F0F2F6;" d="M177.031,839.054c-1.127-0.268-2.305-0.412-3.522-0.412
			c-35.818,0-69.33,0-105.147,0c5.692,8.91,5.716,20.28,0.088,29.313h104.896c8.096,0,14.636-6.54,14.636-14.636
			C187.982,846.502,183.289,840.801,177.031,839.054L177.031,839.054z"/>
		<path style="fill-rule:evenodd;clip-rule:evenodd;fill:#F0F2F6;" d="M189.877,904.472c-5.708-8.95-5.765-20.354-0.169-29.44
			H84.303c-8.096,0-14.627,6.531-14.627,14.629c0,8.094,6.621,14.713,14.627,14.812H189.877z"/>
		<path style="fill-rule:evenodd;clip-rule:evenodd;fill:#E5E8EC;" d="M186.862,898.044c-0.083-0.25-0.162-0.508-0.235-0.766H71.885
			c0.072,0.121,0.154,0.243,0.234,0.355c0.129,0.138,0.265,0.273,0.403,0.41H186.862z M186.151,895.359
			c-0.056-0.25-0.105-0.508-0.153-0.766H70.562c0.098,0.258,0.194,0.516,0.308,0.766H186.151z M185.716,892.684
			c-0.023-0.259-0.047-0.519-0.072-0.769H69.854c0.04,0.261,0.088,0.51,0.145,0.769H185.716z M185.555,889.997
			c0-0.258,0-0.508,0-0.768H69.684l-0.008,0.09l0,0v0.008v0.01v0.008v0.007v0.008c0,0.09,0,0.188,0,0.275v0.008v0.006v0.012v0.007
			l0,0v0.009v0.01c0,0.084,0,0.182,0,0.273v0.008v0.007l0,0v0.008v0.008v0.008H185.555z M185.652,887.313
			c0.023-0.258,0.047-0.508,0.072-0.766H70.015c-0.057,0.25-0.105,0.508-0.145,0.766H185.652z M186.014,884.626
			c0.049-0.258,0.097-0.508,0.153-0.766H70.901c-0.112,0.258-0.217,0.508-0.314,0.766H186.014z M186.643,881.94
			c0.072-0.25,0.154-0.508,0.235-0.764H72.465c-0.185,0.25-0.354,0.506-0.523,0.764H186.643z"/>
		<path style="fill-rule:evenodd;clip-rule:evenodd;fill:#F2705B;" d="M69.676,889.66c0-8.098,6.531-14.629,14.627-14.629h107.171
			v-3.5H84.303c-10.032,0-18.216,8.194-18.216,18.216c0,10.031,8.184,18.215,18.216,18.215h107.171v-3.49H84.303
			C76.296,904.373,69.676,897.754,69.676,889.66L69.676,889.66z"/>
		<polygon style="fill-rule:evenodd;clip-rule:evenodd;fill:#324A5E;" points="100.985,896.101 100.985,917.71 92.963,910.912 
			84.359,918.469 84.359,896.101 		"/>
		<path style="fill-rule:evenodd;clip-rule:evenodd;fill:#E5E8EC;" d="M71.345,861.726c0.081-0.249,0.161-0.507,0.233-0.765h114.744
			c-0.074,0.121-0.155,0.243-0.226,0.354c-0.138,0.138-0.268,0.276-0.403,0.411H71.345z M72.054,859.04
			c0.056-0.248,0.105-0.506,0.154-0.764h115.436c-0.088,0.258-0.193,0.516-0.307,0.764H72.054z M72.49,856.356
			c0.024-0.25,0.049-0.508,0.072-0.758h115.791c-0.041,0.25-0.09,0.508-0.146,0.758H72.49z M72.651,853.68c0-0.258,0-0.516,0-0.766
			h115.88v0.088l0,0v0.008v0.01v0.008v0.008l0,0c0,0.097,0.007,0.192,0.007,0.283v0.008v0.008v0.006v0.009l0,0v0.008v0.008
			c0,0.09-0.007,0.187-0.007,0.273v0.012l0,0v0.007v0.008l0,0v0.016H72.651z M72.555,850.995c-0.024-0.258-0.048-0.508-0.072-0.766
			h115.71c0.056,0.25,0.104,0.508,0.152,0.766H72.555z M72.191,848.31c-0.04-0.258-0.096-0.508-0.146-0.767h115.259
			c0.113,0.25,0.217,0.509,0.315,0.767H72.191z M71.563,845.625c-0.072-0.25-0.153-0.508-0.234-0.766H185.74
			c0.187,0.25,0.363,0.508,0.525,0.766H71.563z"/>
		<polygon style="fill-rule:evenodd;clip-rule:evenodd;fill:#65C5B8;" points="173.564,843.777 173.564,865.388 165.542,858.591 
			156.938,866.146 156.938,843.777 		"/>
		<path style="fill-rule:evenodd;clip-rule:evenodd;fill:#E5E8EC;" d="M186.466,825.458c-0.081-0.251-0.162-0.507-0.234-0.767
			H71.491c0.072,0.122,0.145,0.243,0.225,0.355c0.129,0.146,0.266,0.284,0.404,0.411H186.466z M185.748,822.781
			c-0.049-0.258-0.096-0.516-0.145-0.766H70.159c0.099,0.258,0.203,0.508,0.314,0.766H185.748z M185.321,820.097
			c-0.033-0.26-0.048-0.51-0.072-0.768H69.457c0.043,0.258,0.089,0.508,0.147,0.768H185.321z M185.159,817.41
			c-0.007-0.26-0.007-0.51,0-0.768H69.28v0.091v0.008l0,0v0.008v0.01v0.008v0.005c-0.007,0.091-0.007,0.188-0.007,0.285v0.008l0,0
			v0.006v0.01v0.007l0,0v0.008c0,0.091,0,0.188,0.007,0.285l0,0v0.008l0,0v0.007v0.008v0.008H185.159z M185.256,814.727
			c0.017-0.25,0.04-0.508,0.074-0.768H69.619c-0.056,0.26-0.104,0.51-0.153,0.768H185.256z M185.611,812.04
			c0.049-0.25,0.097-0.508,0.153-0.768l-115.257,0.012c-0.113,0.248-0.218,0.498-0.314,0.756H185.611z M186.248,809.361
			c0.074-0.258,0.154-0.516,0.234-0.764H72.07c-0.185,0.248-0.364,0.5-0.532,0.764H186.248z"/>
		<path style="fill-rule:evenodd;clip-rule:evenodd;fill:#324A5E;" d="M187.982,853.318c0,8.096-6.541,14.636-14.636,14.636H66.175
			v3.489h107.171c10.032,0,18.216-8.185,18.216-18.216c0-10.029-8.184-18.216-18.216-18.216H66.175v3.498h107.171
			C181.353,838.689,187.982,845.221,187.982,853.318L187.982,853.318z"/>
		<path style="fill-rule:evenodd;clip-rule:evenodd;fill:#FFCF5C;" d="M69.676,816.983c0-8.094,6.531-14.627,14.627-14.627h107.171
			v-3.502H84.303c-10.032-0.086-18.128,8.009-18.128,18.129c0,10.024,8.187,18.217,18.217,18.217h107.17v-3.502H84.303
			C76.296,831.61,69.676,824.982,69.676,816.983L69.676,816.983z"/>
		<polygon style="fill-rule:evenodd;clip-rule:evenodd;fill:#F2705B;" points="100.985,808.469 100.985,830.078 92.963,823.28 
			84.359,830.835 84.359,808.469 		"/>
	</g>
	<g>
		<path style="fill-rule:evenodd;clip-rule:evenodd;fill:#89D6F7;" d="M234.442,381.705c0-58.324-47.275-105.608-105.598-105.608
			c-58.322,0-105.597,47.284-105.597,105.608c0,58.315,47.275,105.6,105.597,105.6C187.167,487.304,234.442,440.02,234.442,381.705
			L234.442,381.705z"/>
		<polygon style="fill-rule:evenodd;clip-rule:evenodd;fill:#FFFFFF;" points="73.803,314.021 183.725,314.021 183.725,420.529 
			155.036,449.549 73.803,449.549 		"/>
		<path style="fill-rule:evenodd;clip-rule:evenodd;fill:#F4826A;" d="M136.642,406.233l-4.491-10.643h-20.625l-4.485,10.643H95.399
			l21.117-49.057h10.644l21.119,49.057H136.642z M146.328,382.116v-9.314h-8.975v-6.32h8.975v-9.306h6.981v9.306h8.982v6.32h-8.982
			v9.314H146.328z M121.838,371.802l-6.154,14.304h12.306L121.838,371.802z"/>
		<path style="fill-rule:evenodd;clip-rule:evenodd;fill:#E5E8EC;" d="M155.036,449.549l28.689-29.026H160.34
			c-2.911,0-5.304,2.401-5.304,5.313V449.549z"/>
	</g>
	<g>
		<path style="fill-rule:evenodd;clip-rule:evenodd;fill:#F4826A;" d="M234.442,618.294c0-58.315-47.284-105.599-105.598-105.599
			c-58.313,0-105.597,47.283-105.597,105.599c0,58.314,47.284,105.598,105.597,105.598
			C187.159,723.892,234.442,676.608,234.442,618.294L234.442,618.294z"/>
		
			<rect x="88.795" y="570.88" style="fill-rule:evenodd;clip-rule:evenodd;fill:#58595A;stroke:#7E5C62;stroke-width:0.2268;stroke-miterlimit:10;" width="113.726" height="85.296"/>
		<path style="fill-rule:evenodd;clip-rule:evenodd;fill:#FFFFFF;" d="M200.545,568.848h-5.685H96.568h-5.686h-1.62h-2.444v4.066
			v3.24v75.956c0,1.121,0.912,2.033,2.032,2.033c1.121,0,2.032-0.912,2.032-2.033v-75.956v-3.24h5.686h98.292h5.685v3.24v75.956
			c0,1.121,0.911,2.033,2.031,2.033c1.122,0,2.033-0.912,2.033-2.033v-75.956v-3.24v-4.066h-2.444H200.545z"/>
		<path style="fill-rule:evenodd;clip-rule:evenodd;fill:#7E5A38;" d="M208.721,660.239H82.706c-1.121,0-2.032-0.911-2.032-2.031
			v-4.064c0-1.121,0.911-2.033,2.032-2.033h126.015c1.12,0,2.033,0.912,2.033,2.033v4.064
			C210.754,659.328,209.841,660.239,208.721,660.239L208.721,660.239z"/>
		<path style="fill-rule:evenodd;clip-rule:evenodd;fill:#FFFFFF;" d="M115.251,652.11v-4.053c0-1.132-0.913-2.036-2.032-2.036
			h-12.185c-1.121,0-2.031,0.904-2.031,2.036v4.053 M115.251,652.11L115.251,652.11L115.251,652.11z"/>
		<path style="fill-rule:evenodd;clip-rule:evenodd;fill:#FDD098;" d="M64.306,630.234c-6.814-1.372-1.452,19.191,3.612,16.265
			l2.507,7.936c2.25,7.144,8.202,13.739,12.725,18.956c1.758,2.038,12.844,2.258,14.684,0.409
			c5.257-5.282,11.49-11.208,13.948-18.473l2.628-7.771c4.936,3.151,11.218-17.143,4.356-16.078
			c0.837-15.893-10.055-31.577-26.521-32.021C75.78,599.151,64.185,614.328,64.306,630.234L64.306,630.234z"/>
		<path style="fill-rule:evenodd;clip-rule:evenodd;fill:#EEB87C;" d="M106.518,658.658l-31.213-0.7
			c4.435,18.536-0.21,26.834-0.21,26.834s6.629,7.031,15.055,7.224c8.427,0.188,15.36-6.531,15.36-6.531
			S101.244,676.979,106.518,658.658L106.518,658.658z"/>
		<path style="fill-rule:evenodd;clip-rule:evenodd;fill:#333333;" d="M75.304,673.722c-11.716,4.82-20.635,8.902-27.464,12.312
			c0.597,0.71,1.202,1.411,1.813,2.105l0.114,0.121c0.524,0.597,1.057,1.186,1.597,1.767l0.411,0.442
			c0.507,0.541,1.016,1.071,1.532,1.597l0.314,0.33l0.919,0.919l1.007,0.983l0.991,0.943l0.194,0.181
			c0.572,0.539,1.153,1.07,1.742,1.594l0.475,0.419c0.517,0.46,1.041,0.912,1.564,1.364l0.525,0.436
			c0.451,0.386,0.911,0.764,1.369,1.137l0.734,0.589l0.952,0.749l1.226,0.943l0.878,0.653l0.71,0.508l1.451,1.041l0.734,0.506
			c0.459,0.318,0.919,0.63,1.386,0.936l0.88,0.579l1.217,0.786l1.008,0.629l0.928,0.563l1.41,0.83l0.863,0.5l1.112,0.623
			l1.234,0.668l1.032,0.548l1.153,0.589l1.256,0.62l0.767,0.377c0.564,0.268,1.137,0.534,1.709,0.8l0.654,0.292
			c0.581,0.256,1.161,0.514,1.75,0.764l0.708,0.3c0.565,0.233,1.13,0.47,1.702,0.695l0.678,0.266
			c0.541,0.209,1.08,0.418,1.622,0.619l0.58,0.219c0.621,0.226,1.25,0.443,1.872,0.655l0.597,0.199
			c0.637,0.218,1.266,0.418,1.911,0.62l0.661,0.21c0.645,0.194,1.29,0.386,1.936,0.575l0.523,0.143
			c0.702,0.201,1.403,0.396,2.105,0.573l0.104,0.03l0.225,0.058c0.703,0.18,1.413,0.347,2.122,0.514l0.274,0.068
			c0.727,0.159,1.451,0.319,2.177,0.475l0.549,0.112c0.725,0.146,1.46,0.282,2.202,0.419l0.322,0.058
			c0.766,0.137,1.541,0.268,2.307,0.387l0.387,0.057c1.646,0.242,3.298,0.451,4.967,0.631l0.097,0.005
			c0.799,0.081,1.587,0.147,2.387,0.21l0.427,0.033c0.767,0.063,1.54,0.112,2.314,0.154l0.418,0.015
			c0.775,0.041,1.557,0.071,2.339,0.089l0.444,0.006c0.806,0.026,1.621,0.034,2.435,0.034c6.637,0,13.127-0.621,19.424-1.791
			c1.783-8.45,6.258-19.255,5.17-20.264c-3.934-3.644-13.555-11.586-47.106-27.213L75.304,673.722z M100.244,719.965
			c0.702,0.201,1.403,0.396,2.105,0.573"/>
		<polygon style="fill-rule:evenodd;clip-rule:evenodd;fill:#FFFFFF;" points="111.187,662.819 111.187,662.819 111.187,662.819 		
			"/>
		<path style="fill-rule:evenodd;clip-rule:evenodd;fill:#FFFFFF;" d="M107.018,662.249L107.018,662.249L107.018,662.249z"/>
		<path style="fill-rule:evenodd;clip-rule:evenodd;fill:#8EA6AE;" d="M92.6,701.629L92.6,701.629l-0.024-0.178L92.6,701.629z
			 M87.271,701.509L87.271,701.509l0.023-0.18L87.271,701.509z"/>
		<path style="fill-rule:evenodd;clip-rule:evenodd;fill:#20130F;" d="M63.927,618.987c0,0-4.734-6.653,2.347-12.789
			c0,0,1.256-10.37,11.909-4.476c0,0,4.637-11.966,29.342-2.938l-3.862,0.688c18.957,10.935,19.813,11.435,14.99,32.802
			c-0.936,4.137-2.87,8.564-4.063,14.522c-2.934,10.467-4.08,16.232-8.732,18.521c-7.394,3.621-21.779,3.613-29.109,0.403
			c-5.943-2.595-5.886-10.291-8.83-19.23C65.039,637.759,60.943,626.049,63.927,618.987L63.927,618.987z"/>
		<polygon style="fill-rule:evenodd;clip-rule:evenodd;fill:#333333;" points="72.562,668.971 109.073,669.979 111.903,680.875 
			68.91,680.253 		"/>
		<path style="fill-rule:evenodd;clip-rule:evenodd;fill:#FDD098;" d="M155.445,647.063c1.508,0.46,3.097-0.379,3.565-1.871
			l4.039-12.996c0.468-1.5-0.362-3.089-1.863-3.559c-1.507-0.457-3.095,0.372-3.563,1.875l-4.048,12.997
			C153.115,645,153.945,646.589,155.445,647.063L155.445,647.063z"/>
		<path style="fill-rule:evenodd;clip-rule:evenodd;fill:#FDD098;" d="M160.349,650.449c1.5,0.47,3.096-0.371,3.564-1.87
			l4.047-12.981c0.46-1.501-0.378-3.096-1.879-3.563c-1.499-0.468-3.088,0.37-3.555,1.87l-4.048,12.99
			C158.019,648.387,158.849,649.983,160.349,650.449L160.349,650.449z"/>
		<path style="fill-rule:evenodd;clip-rule:evenodd;fill:#FDD098;" d="M165.05,654.482c1.499,0.468,3.096-0.363,3.563-1.862
			l4.041-12.999c0.467-1.499-0.372-3.09-1.872-3.554c-1.499-0.47-3.089,0.369-3.564,1.868l-4.04,12.99
			C162.719,652.426,163.55,654.016,165.05,654.482L165.05,654.482z"/>
		<polygon style="fill-rule:evenodd;clip-rule:evenodd;fill:#FFFFFF;" points="148.003,657.902 143.149,626.962 148.971,626.041 
			153.826,656.981 		"/>
		<path style="fill-rule:evenodd;clip-rule:evenodd;fill:#FDD098;" d="M149.487,647.072c1.509,0.468,3.098-0.37,3.564-1.873
			l4.04-12.99c0.475-1.489-0.371-3.089-1.871-3.553c-1.5-0.469-3.087,0.37-3.555,1.867l-4.04,12.985
			C147.157,645.016,147.996,646.612,149.487,647.072L149.487,647.072z"/>
		<path style="fill-rule:evenodd;clip-rule:evenodd;fill:#FDD098;" d="M148.222,655.173c1.387-0.488,2.128-2.015,1.637-3.399
			l-4.225-12.03c-0.493-1.388-2.008-2.121-3.403-1.621c-1.387,0.483-2.113,1.999-1.629,3.395l4.225,12.021
			C145.312,654.923,146.843,655.658,148.222,655.173L148.222,655.173z"/>
		<path style="fill-rule:evenodd;clip-rule:evenodd;fill:#FDD098;" d="M152.914,661.618c6.5,2.032,13.402-1.597,15.433-8.104
			l0.13-0.435c2.016-6.491-1.604-13.405-8.103-15.428c-6.5-2.024-13.409,1.605-15.426,8.104l-0.145,0.438
			C142.786,652.69,146.416,659.602,152.914,661.618L152.914,661.618z"/>
		<path style="fill-rule:evenodd;clip-rule:evenodd;fill:#333333;" d="M143.561,655.658l-19.965,45.294
			c-2.057,7.916,2.684,15.995,10.603,18.062c7.918,2.056,16.006-2.701,18.063-10.613l12.086-47.323L143.561,655.658z"/>
		<path style="fill:#FFFFFF;" d="M133.102,605.875h-3.04v-1.491h-0.039c-0.694,1.17-1.735,1.751-3.105,1.751
			c-1.007,0-1.799-0.291-2.378-0.866c-0.581-0.562-0.863-1.337-0.863-2.29c0-2.015,1.193-3.181,3.581-3.49l2.829-0.377
			c0-1.138-0.62-1.703-1.854-1.703c-1.233,0-2.419,0.363-3.531,1.104v-2.419c0.443-0.232,1.057-0.435,1.829-0.612
			c0.775-0.177,1.484-0.258,2.121-0.258c2.967,0,4.451,1.477,4.451,4.437V605.875z M130.086,601.651v-0.704l-1.893,0.244
			c-1.041,0.134-1.565,0.604-1.565,1.42c0,0.361,0.128,0.66,0.379,0.893c0.259,0.235,0.604,0.356,1.031,0.356
			c0.605,0,1.097-0.21,1.476-0.63C129.894,602.818,130.086,602.288,130.086,601.651L130.086,601.651z M148.617,600.947h-3.912v3.911
			h-2.055v-3.911h-3.935v-2.063h3.935v-3.927h2.055v3.927h3.912V600.947z M155.615,604.667h-0.04v1.208h-3.209v-15.398h3.209v6.562
			h0.04c0.791-1.21,1.92-1.814,3.388-1.814c1.337,0,2.371,0.46,3.095,1.379c0.727,0.919,1.09,2.177,1.09,3.782
			c0,1.734-0.428,3.119-1.275,4.168c-0.847,1.057-1.977,1.582-3.396,1.582C157.244,606.135,156.277,605.648,155.615,604.667
			L155.615,604.667z M155.527,600.279v1.063c0,0.678,0.186,1.226,0.58,1.673c0.378,0.44,0.879,0.66,1.484,0.66
			c0.725,0,1.29-0.283,1.693-0.85c0.403-0.563,0.613-1.369,0.613-2.402c0-0.863-0.195-1.53-0.557-2.022
			c-0.371-0.476-0.896-0.718-1.58-0.718c-0.646,0-1.177,0.234-1.605,0.718C155.737,598.877,155.527,599.505,155.527,600.279
			L155.527,600.279z M179.104,598.763h-9.901v-2.078h9.901V598.763z M179.104,603.176h-9.901v-2.063h9.901V603.176z
			 M190.732,605.506c-0.718,0.417-1.767,0.629-3.138,0.629c-1.596,0-2.886-0.486-3.878-1.453c-0.992-0.976-1.484-2.215-1.484-3.748
			c0-1.774,0.533-3.162,1.589-4.188c1.056-1.015,2.475-1.522,4.258-1.522c1.217,0,2.112,0.162,2.653,0.485v2.725
			c-0.671-0.5-1.413-0.75-2.242-0.75c-0.919,0-1.653,0.266-2.194,0.806c-0.533,0.533-0.806,1.272-0.806,2.227
			c0,0.918,0.258,1.646,0.774,2.169c0.515,0.533,1.226,0.791,2.121,0.791c0.805,0,1.581-0.25,2.347-0.758V605.506z"/>
		<path style="fill:#FFFFFF;" d="M134.513,595.279v0.016h2.05v0.928h-3.322v-0.869l1.443-1.379c0.297-0.272,0.499-0.508,0.621-0.704
			c0.112-0.183,0.178-0.387,0.178-0.595c0-0.458-0.25-0.692-0.75-0.692c-0.436,0-0.847,0.168-1.251,0.516v-0.978
			c0.445-0.281,0.937-0.427,1.485-0.427c0.517,0,0.919,0.129,1.209,0.389c0.29,0.265,0.437,0.612,0.437,1.046
			c0,0.59-0.357,1.203-1.058,1.833L134.513,595.279z"/>
		<path style="fill:#FFFFFF;" d="M165.018,595.279v0.016h2.047v0.928h-3.322v-0.869l1.443-1.379c0.291-0.272,0.5-0.508,0.612-0.704
			c0.121-0.183,0.186-0.387,0.186-0.595c0-0.458-0.25-0.692-0.75-0.692c-0.436,0-0.854,0.168-1.251,0.516v-0.978
			c0.444-0.281,0.936-0.427,1.484-0.427c0.517,0,0.92,0.129,1.209,0.389c0.292,0.265,0.437,0.612,0.437,1.046
			c0,0.59-0.354,1.203-1.056,1.833L165.018,595.279z"/>
		<path style="fill:#FFFFFF;" d="M193.198,595.279v0.016h2.049v0.928h-3.322v-0.869l1.442-1.379c0.298-0.272,0.5-0.508,0.622-0.704
			c0.113-0.183,0.178-0.387,0.178-0.595c0-0.458-0.251-0.692-0.75-0.692c-0.435,0-0.847,0.168-1.25,0.516v-0.978
			c0.444-0.281,0.936-0.427,1.484-0.427c0.517,0,0.919,0.129,1.209,0.389c0.29,0.265,0.436,0.612,0.436,1.046
			c0,0.59-0.355,1.203-1.056,1.833L193.198,595.279z"/>
	</g>
	<g>
		<path style="fill-rule:evenodd;clip-rule:evenodd;fill:#324A5E;" d="M976.752,145.109c0,58.322-47.281,105.605-105.606,105.605
			c-58.313,0-105.598-47.283-105.598-105.605c0-58.324,47.285-105.599,105.598-105.599
			C929.471,39.51,976.752,86.785,976.752,145.109L976.752,145.109z"/>
		<rect x="871.115" y="186.868" style="fill-rule:evenodd;clip-rule:evenodd;fill:#F7B34C;" width="9.828" height="14.739"/>
		<path style="fill-rule:evenodd;clip-rule:evenodd;fill:#B97958;" d="M861.356,211.438v-4.918c0-2.71,2.202-4.912,4.911-4.912
			h19.658c2.71,0,4.909,2.202,4.909,4.912v4.918 M861.356,211.438L861.356,211.438L861.356,211.438z"/>
		<path style="fill-rule:evenodd;clip-rule:evenodd;fill:#F7B34C;" d="M876.098,81.247c-1.355,0-2.46-1.105-2.46-2.46v-9.828
			c0-1.355,1.104-2.452,2.46-2.452c1.354,0,2.457,1.096,2.457,2.452v9.828C878.555,80.142,877.451,81.247,876.098,81.247
			L876.098,81.247z"/>
		<path style="fill-rule:evenodd;clip-rule:evenodd;fill:#F7B34C;" d="M876.098,189.328c-1.355,0-2.46-1.104-2.46-2.459v-9.82
			c0-1.363,1.104-2.459,2.46-2.459c1.354,0,2.457,1.097,2.457,2.459v9.82C878.555,188.224,877.451,189.328,876.098,189.328
			L876.098,189.328z"/>
		<path style="fill-rule:evenodd;clip-rule:evenodd;fill:#99655A;" d="M893.288,208.978h-34.394
			c-6.763,0-12.277,5.507-12.277,12.281c0,1.355,1.105,2.459,2.461,2.459h54.038c1.355,0,2.458-1.104,2.458-2.459
			C905.574,214.485,900.059,208.978,893.288,208.978L893.288,208.978z"/>
		<path style="fill-rule:evenodd;clip-rule:evenodd;fill:#6493CD;" d="M927.613,127.917c0-28.487-23.092-51.589-51.583-51.589
			c-28.493,0-51.589,23.102-51.589,51.589c0,28.488,23.096,51.581,51.589,51.581C904.521,179.499,927.613,156.405,927.613,127.917
			L927.613,127.917z"/>
		<path style="fill-rule:evenodd;clip-rule:evenodd;fill:#FFCF5C;" d="M885.918,189.328h-9.82c-33.867,0-61.411-27.552-61.411-61.41
			c0-33.866,27.544-61.411,61.411-61.411h9.82c1.363,0,2.459,1.096,2.459,2.452c0,1.363-1.096,2.458-2.459,2.458h-9.82
			c-31.158,0-56.5,25.344-56.5,56.5c0,31.149,25.342,56.492,56.5,56.492h9.82c1.363,0,2.459,1.105,2.459,2.458
			C888.377,188.224,887.281,189.328,885.918,189.328L885.918,189.328z"/>
		<path style="fill-rule:evenodd;clip-rule:evenodd;fill:#6493CD;" d="M925.646,127.917c0-27.455-22.256-49.711-49.702-49.711
			c-27.459,0-49.712,22.256-49.712,49.711c0,27.448,22.253,49.711,49.712,49.711C903.391,177.628,925.646,155.365,925.646,127.917
			L925.646,127.917z"/>
		<path style="fill-rule:evenodd;clip-rule:evenodd;fill:#AACA57;" d="M851.34,124.16c0.175-0.854,1.194-1.201,1.712-1.879
			c0.685-1.023-0.171-2.394-0.854-3.587c-0.683-1.024-1.192-2.734,0-3.419c-0.857-1.024-1.363-2.395-1.879-3.588
			c-0.685-1.194-1.71-2.387-3.073-2.217c-1.023,0-1.878,0.854-2.731,1.361c-1.203,0.686-2.566,0.856-3.759,1.373
			c-1.2,0.507-2.563,1.362-2.731,2.733c-0.181,1.361,0.677,2.733,0,3.925c-0.687,1.365-2.904,2.049-2.396,3.42
			c0.167,0.338,0.34,0.678,0.516,0.855c0.508,1.024-0.683,2.218-1.539,2.903l-8.203,6.491c0.171,1.709,0.34,3.587,0.855,5.289
			c0.169,0,0.169,0,0.339,0c1.026,0,2.395-0.677,3.248,0.179c0.172,0.338,0.51,0.676,0.856,0.676c0.169,0,0.339-0.168,0.51-0.338
			c0.345-0.687,0.685-1.541,0.685-2.396c1.194,1.201,2.393,2.396,3.589,3.589c1.876-0.677,2.394-3.412,4.272-3.928
			c2.047-0.508,4.097,1.709,5.975,1.025c1.371-0.509,2.048-2.219,3.25-3.073c1.36-1.023,3.41-0.855,5.29-0.516
			c0.348-2.387-0.508-4.951-2.218-6.66C852.026,125.692,851.005,125.015,851.34,124.16L851.34,124.16z"/>
		<path style="fill-rule:evenodd;clip-rule:evenodd;fill:#AACA57;" d="M869.273,95.114c0.18-1.191-1.53-2.047-2.383-1.361
			c-0.171-0.169-0.518-0.347-0.687-0.516c0.854-1.364,2.902-0.855,4.104,0.169c1.192,1.031,2.047,2.563,3.408,3.25
			c1.025,0,1.543-1.372,1.71-2.396c0-1.023-0.167-2.218,0.518-3.072c0.17-0.339,0.508-0.686,0.679-1.024
			c0.343-1.371-1.705-1.878-2.223-3.073c-0.335-1.031,0.173-2.056,0.518-3.08c0.342-1.024,0.173-2.387-0.853-2.564
			c-1.37,2.055-5.13,1.71-5.982,3.936c-0.34,1.192,0,2.733-1.192,3.241c-0.859,0.345-1.712-0.686-1.881-1.71
			c0-1.023,0.338-1.879,0.338-2.903c0-0.509-0.169-0.854-0.169-1.362c0-0.686,0.518-1.54,0.687-2.227
			c0.166-0.338,0.166-0.677,0-1.023c-9.225,1.877-17.943,6.492-24.941,13.498c-0.344,0.339-0.685,0.855-1.192,1.193
			c0.17,2.395,2.216,4.781,2.902,7.346c0.337,1.023,0.337,2.047,0.677,3.073c0.349,1.031,1.025,1.886,2.057,2.056
			c0.854-1.025,1.023-2.565,0.17-3.588c0.685-0.347,1.361-0.517,1.708-1.194c0.34-0.515,0.34-1.54-0.347-1.709
			c-0.337-0.176-0.853,0-1.361,0c-1.372,0-2.227-1.541-2.903-2.902c2.733-1.032,5.975,0,7.516,2.386
			c-0.347-0.337-0.516-0.853-0.856-1.192c2.222-0.687,4.612-1.026,6.832-0.855c0.683,0,1.368,0.168,1.877-0.171
			c0.854-0.345,1.37-1.37,2.225-1.37c0.677,0,1.194,0.347,1.879,0.517C864.663,96.995,867.228,93.753,869.273,95.114L869.273,95.114
			z"/>
		<path style="fill-rule:evenodd;clip-rule:evenodd;fill:#AACA57;" d="M886.194,95.285c1.36,0.685,3.241,0.177,4.261-0.854
			c0.349-0.339,0.688-0.508,1.025-0.508c0.518,0,1.033,0.508,1.373,1.023c1.877,2.393,5.118,3.758,8.198,3.071
			c0.171-1.022-1.368-1.531-1.368-2.555c0-0.855,1.2-1.201,2.055-0.855c0.846,0.339,1.361,1.193,2.049,1.533
			c0.855,0.347,2.046,0.177,2.73-0.339c0.689-0.686,1.025-1.709,0.689-2.563c-0.18-0.339-0.349-0.855-0.18-1.194
			c0.18-0.516,0.856-0.338,1.37-0.338c0.687,0.169,1.365,0.338,2.05,0.507c-5.976-5.806-12.812-9.731-20.327-11.957v0.168
			c-0.518,1.541-1.363,2.903-1.879,4.274c-0.518,1.709-0.687,3.758-1.881,5.12c-0.516,0.516-1.023,0.855-1.37,1.542
			C884.143,92.729,884.821,94.607,886.194,95.285L886.194,95.285z"/>
		<path style="fill-rule:evenodd;clip-rule:evenodd;fill:#AACA57;" d="M922.744,126.377c-1.363-0.855-2.558-2.564-2.387-4.275
			c0-0.678,0.169-1.192,0.169-1.876c-0.169-1.026-0.855-1.704-1.373-2.388c-1.36-1.372-2.731-2.564-4.094-3.757
			c-1.71-1.372-4.099-2.395-5.636-1.025c-0.34,0.338-0.517,0.678-0.855,1.025c-0.854,0.507-1.879,0.169-2.735-0.17
			c-0.854-0.346-2.216-0.177-2.393,0.846c-0.171,1.202,1.539,1.71,1.881,2.912c0.174,0.339,0,0.677,0.174,1.024
			c0.171,1.709,2.734,2.387,3.76,1.023c0.685-1.023,0.853-2.732,2.047-2.732c1.192,0.507,2.048,1.876,2.048,3.071
			c-0.34-0.855-1.712-0.507-2.219,0.171c-0.516,0.684-0.684,1.708-1.199,2.226c-1.192,1.192-3.242,0.854-4.783,0.167
			c-3.41-1.194-6.659-2.393-10.081-3.588c-0.337-0.17-0.852-0.337-1.19-0.17c-0.508,0.17-0.685,0.856-1.192,1.194
			c-0.687,0.517-1.712,0.347-2.396-0.168c-0.686-0.517-1.364-1.026-2.218-1.364c-0.854-0.346-1.876,0.171-2.047,1.026
			c0,0.338,0,0.678,0.171,1.023c1.529,2.903,5.294,3.411,7.852,5.297c0.17-1.203,1.878-1.371,2.904-0.854
			c1.031,0.677,1.37,1.877,1.539,3.071c0.171,1.194,0.171,2.386,0.854,3.419c0.857,1.532,3.071,2.218,4.61,1.532
			c1.025-0.508,2.22-1.364,3.073-0.677c0.856,0.677,0.18,2.047,0.516,3.072c0.171,0.339,0.51,0.685,0.51,1.194
			c0.177,0.853-1.194,1.371-2.049,1.022c-0.855-0.338-1.361-1.193-2.05-1.877c-0.685-0.687-1.539-1.364-2.394-1.024
			c-1.026-0.17-1.701,1.192-1.359,2.224c0.333,1.026,1.359,1.534,2.214,2.049c-0.169,0.854-1.025,1.192-1.881,1.192
			c-0.851,0-1.527-0.338-2.214-0.684c-2.047-1.024-4.443-2.558-4.61-4.782c0-0.685,0.167-1.363,0-2.218
			c-0.172-2.226-1.882-3.935-3.59-5.298c-2.904-1.54-5.807-3.249-9.056-2.903c-1.194,0.17-2.387,0.687-3.41,1.194
			c-2.058,1.024-4.106,2.395-5.816,3.927c-1.192,1.201-2.385,2.565-2.556,4.274c-0.176,2.217,1.534,4.095,3.244,5.467
			c1.708,1.362,3.755,2.733,4.612,4.781c-1.542,0.516-1.712,2.564-2.221,4.105c-1.201,3.41-5.636,4.782-7.521,8.023
			c-1.023,1.71-1.192,3.935-2.387,5.466c-0.518,0.686-1.025,1.193-1.372,2.048c-1.021,2.227,1.203,4.958,3.767,5.297
			c2.555,0.347,4.951-1.023,6.996-2.563c0.518-0.339,1.026-0.855,1.714-1.024c0.516-0.169,1.024-0.169,1.54-0.169
			c1.19,0,2.385-0.17,3.578-0.17c-0.508,0-0.678-0.854-0.339-1.193c0.349-0.347,0.856-0.516,1.194-0.854
			c1.71-0.855,2.733-2.564,3.418-4.274c0.854,1.71,3.418,1.363,5.298,0.686c1.71-0.686,3.591-1.201,5.297-1.878
			c-1.2,0.168-2.391-0.855-2.908-2.048c-0.339-1.202-0.172-2.564,0.346-3.766c0.508-1.025,1.192-2.048,1.529-3.242
			c0.349-1.193,0.349-2.396,0.688-3.419c0.345-1.193,0.853-2.388,2.049-2.733c0.516,2.395,0.177,4.782-0.848,7.006
			c-0.856,1.709-2.057,3.758-0.856,5.12c0.508,0.686,1.363,0.855,2.22,1.024c2.048,0.347,4.095,0.687,5.976,1.032
			c-0.679-2.564-1.026-5.297-1.026-7.862c0-0.684,0.179-1.362,0.685-1.539c0.857,3.081,2.05,5.983,3.93,8.547
			c0.346,0.338,0.514,0.854,0.685,1.361c0,0.518,0,0.857-0.171,1.373c-0.684,2.216-1.88,4.095-2.047,6.313
			c0,1.031,0.167,2.225-0.169,3.249c1.702-1.371,3.41-2.903,5.12-4.443c9.911-9.91,14.691-22.715,14.524-35.704
			C924.623,127.231,923.598,126.892,922.744,126.377L922.744,126.377z"/>
		<path style="fill-rule:evenodd;clip-rule:evenodd;fill:#AACA57;" d="M884.65,166.348c-0.686,0.685-1.537,0.854-2.563,0.685
			c-0.51-0.169-1.023-0.339-1.533-0.339c-0.685,0.17-1.024,0.687-1.54,1.194c-0.514,0.685-1.023,1.539-1.708,2.217
			c-0.168,0.177-0.341,0.517-0.341,0.855c0,0.687,0.856,0.854,1.365,0.854c0.684-0.167,1.199-0.507,1.708-0.677
			c0.686-0.177,1.193,0,1.88-0.177c0.855-0.169,1.537-0.855,2.046-1.362c0.518-0.516,0.856-1.025,1.025-1.542
			C885.506,167.372,885.337,166.524,884.65,166.348L884.65,166.348z"/>
		<path style="fill-rule:evenodd;clip-rule:evenodd;fill:#AACA57;" d="M896.093,101.098c-0.677,0.339-0.51,1.193-0.337,1.88v-0.347
			c0.168,0.854,1.023,1.709,2.049,1.709c0.855,0.17,1.879-0.338,2.396-1.193c-1.025-0.686-2.05-1.192-3.075-1.877
			C896.95,101.269,896.439,100.92,896.093,101.098L896.093,101.098z"/>
	</g>
	<g>
		<path style="fill-rule:evenodd;clip-rule:evenodd;fill:#96D0A5;" d="M976.752,381.705c0,58.315-47.281,105.6-105.606,105.6
			c-58.313,0-105.598-47.276-105.598-105.6c0-58.324,47.285-105.608,105.598-105.608
			C929.471,276.097,976.752,323.381,976.752,381.705L976.752,381.705z"/>
		<path style="fill-rule:evenodd;clip-rule:evenodd;fill:#FFFFFF;" d="M948.191,359.063c-0.412-1.05-1.469-1.669-2.564-1.629
			c-49.396,3.323-99.493,3.323-148.883,0c-1.216-0.048-2.257,0.661-2.629,1.783c-1.756,5.467-2.691,11.079-2.691,16.223
			c0,1.426,1.152,2.571,2.571,2.571h154.377c1.424,0,2.578-1.145,2.578-2.571C950.95,370.794,950.616,365.215,948.191,359.063
			L948.191,359.063z"/>
		<path style="fill-rule:evenodd;clip-rule:evenodd;fill:#E5E8EC;" d="M953.442,375.237c-0.105-1.339-1.228-2.371-2.565-2.371
			H884.12c-1.419,0-2.573,1.153-2.573,2.573h-20.658c0-1.419-1.145-2.573-2.573-2.573h-66.892c-1.342,0-2.459,1.031-2.564,2.371
			c-0.05,0.581-1.06,14.377,5.415,27.102c0.447,0.862,1.333,1.404,2.291,1.404c0.06,0,0.123,0,0.179,0
			c19.943-1.348,40.141-2.154,60.018-2.411l11.852-0.088l16.982,0.088c19.885,0.257,40.072,1.063,60.016,2.402
			c1.276,0.104,2.371-0.741,2.678-1.911C954.466,389.253,953.49,375.81,953.442,375.237L953.442,375.237z"/>
		<polygon style="fill-rule:evenodd;clip-rule:evenodd;fill:#2B3B4E;" points="870.749,388.929 876.781,390.518 869.061,419.949 
			864.235,413.95 857.101,416.755 864.822,387.325 		"/>
		<polygon style="fill-rule:evenodd;clip-rule:evenodd;fill:#324A5E;" points="874.677,391.792 869.783,395.67 888.691,419.506 
			890.724,412.192 898.384,411.886 879.475,388.05 		"/>
		<path style="fill-rule:evenodd;clip-rule:evenodd;fill:#F2705B;" d="M891.878,378.075L891.878,378.075
			c0.989-1.507,0.563-3.563-0.953-4.547l0,0c-1.104-0.718-1.732-2.016-1.428-3.387l0,0c0.323-1.855-0.854-3.509-2.588-3.854l0,0
			c-1.346-0.195-2.412-1.274-2.669-2.525l0,0c-0.389-1.822-2.178-2.991-3.998-2.613l0,0c-1.361,0.292-2.673-0.265-3.39-1.427l0,0
			c-1.037-1.564-3.119-1.838-4.57-0.822l0,0c-1.153,0.719-2.563,0.775-3.669,0.057l0,0c-1.514-0.984-3.563-0.556-4.555,0.959l0,0
			c-0.721,1.096-2.007,1.726-3.379,1.418l0,0c-1.854-0.322-3.506,0.856-3.855,2.598l0,0c-0.191,1.346-1.272,2.402-2.532,2.668l0,0
			c-1.821,0.38-2.99,2.17-2.603,3.991l0,0c0.281,1.364-0.274,2.67-1.429,3.388l0,0c-1.563,1.048-1.836,3.119-0.822,4.571l0,0
			c0.721,1.162,0.774,2.573,0.058,3.678l0,0c-0.993,1.508-0.558,3.556,0.951,4.547l0,0c1.105,0.719,1.734,2.016,1.426,3.387l0,0
			c-0.32,1.847,0.856,3.507,2.588,3.855l0,0c1.357,0.193,2.411,1.274,2.68,2.524l0,0c0.38,1.822,2.17,2.991,3.989,2.611l0,0
			c1.363-0.29,2.67,0.268,3.388,1.428l0,0c1.042,1.564,3.12,1.837,4.573,0.821l0,0c1.15-0.717,2.57-0.781,3.667-0.056l0,0
			c1.515,0.983,3.565,0.557,4.557-0.959l0,0c0.717-1.104,2.015-1.725,3.388-1.419l0,0c1.846,0.323,3.498-0.855,3.843-2.596l0,0
			c0.196-1.347,1.285-2.403,2.532-2.669l0,0c1.823-0.38,2.995-2.169,2.609-3.991l0,0c-0.287-1.371,0.272-2.678,1.423-3.395l0,0
			c1.567-1.041,1.848-3.113,0.83-4.563l0,0C891.126,380.729,891.16,379.181,891.878,378.075L891.878,378.075z"/>
		<path style="fill-rule:evenodd;clip-rule:evenodd;fill:#FFFFFF;" d="M885.707,376.995c-1.748-8.362-9.951-13.716-18.311-11.958
			c-8.361,1.758-13.716,9.959-11.958,18.313c1.752,8.363,9.949,13.716,18.313,11.965
			C882.111,393.558,887.465,385.357,885.707,376.995L885.707,376.995z"/>
		<path style="fill-rule:evenodd;clip-rule:evenodd;fill:#F2705B;" d="M883.888,377.382c-1.543-7.354-8.759-12.071-16.111-10.523
			c-7.355,1.542-12.063,8.757-10.517,16.112c1.543,7.354,8.757,12.063,16.113,10.523
			C880.725,391.945,885.435,384.736,883.888,377.382L883.888,377.382z"/>
	</g>
	<g>
		<path style="fill-rule:evenodd;clip-rule:evenodd;fill:#FFCF5C;" d="M976.752,618.294c0-58.323-47.281-105.599-105.606-105.599
			c-58.313,0-105.598,47.275-105.598,105.599c0,58.322,47.285,105.598,105.598,105.598
			C929.471,723.892,976.752,676.616,976.752,618.294L976.752,618.294z"/>
		<polygon style="fill-rule:evenodd;clip-rule:evenodd;fill:#FFFFFF;" points="816.104,550.609 926.026,550.609 926.026,657.121 
			897.343,686.147 816.104,686.147 		"/>
		<path style="fill-rule:evenodd;clip-rule:evenodd;fill:#E5E8EC;" d="M897.343,686.147l28.684-29.026H902.65
			c-2.911,0-5.308,2.391-5.308,5.303V686.147z"/>
		<path style="fill:#324A5E;" d="M843.828,601.625v33.507h-8.345V617.14c0-2.598-0.06-4.162-0.181-4.684
			c-0.126-0.525-0.468-0.928-1.023-1.193c-0.556-0.268-1.796-0.402-3.725-0.402h-0.83v-3.889c4.039-0.864,7.103-2.645,9.189-5.347
			H843.828z M867.155,610.568h-8.347c0-1.572-0.006-2.554-0.05-2.96c-0.03-0.409-0.199-0.759-0.506-1.031
			c-0.294-0.275-0.7-0.419-1.218-0.419c-0.435,0-0.782,0.136-1.065,0.394c-0.272,0.268-0.443,0.598-0.483,1.007
			c-0.04,0.42-0.065,1.253-0.065,2.501v5.328c0.436-0.884,1.064-1.554,1.889-1.998c0.83-0.442,1.854-0.666,3.069-0.666
			c1.535,0,2.889,0.42,4.058,1.249c1.179,0.821,1.919,1.813,2.243,2.967c0.313,1.152,0.476,2.726,0.476,4.691v2.659
			c0,2.35-0.089,4.091-0.265,5.234c-0.188,1.146-0.664,2.204-1.445,3.172c-0.774,0.975-1.847,1.722-3.201,2.265
			c-1.365,0.531-2.943,0.807-4.751,0.807c-2.248,0-4.095-0.315-5.53-0.934c-1.426-0.623-2.542-1.511-3.324-2.68
			c-0.771-1.161-1.234-2.387-1.362-3.671c-0.135-1.271-0.191-3.764-0.191-7.457v-4.627c0-3.983,0.057-6.655,0.176-7.992
			c0.113-1.346,0.589-2.621,1.438-3.816c0.838-1.198,1.992-2.101,3.443-2.699c1.459-0.604,3.136-0.895,5.039-0.895
			c2.347,0,4.271,0.377,5.771,1.13c1.511,0.766,2.584,1.837,3.227,3.217C866.831,606.722,867.155,608.463,867.155,610.568
			L867.155,610.568z M858.809,620.986c0-1.186-0.129-1.991-0.395-2.435c-0.265-0.444-0.692-0.66-1.298-0.66
			c-0.579,0-1.017,0.208-1.281,0.628c-0.273,0.43-0.414,1.241-0.414,2.467v6.04c0,1.477,0.131,2.435,0.388,2.894
			c0.259,0.451,0.687,0.678,1.292,0.678c0.353,0,0.742-0.177,1.129-0.532c0.386-0.347,0.579-1.287,0.579-2.831V620.986z
			 M889.71,612.972v11.166c0,2.541-0.146,4.381-0.42,5.54c-0.276,1.171-0.85,2.242-1.722,3.256
			c-0.858,1.003-1.907,1.729-3.134,2.162c-1.218,0.446-2.586,0.672-4.112,0.672c-1.991,0-3.651-0.233-4.977-0.695
			c-1.322-0.466-2.379-1.186-3.167-2.161c-0.783-0.983-1.34-2.015-1.669-3.089c-0.332-1.089-0.493-2.813-0.493-5.167v-11.684
			c0-3.08,0.265-5.379,0.8-6.91c0.525-1.532,1.579-2.758,3.159-3.685c1.571-0.928,3.482-1.38,5.735-1.38
			c1.827,0,3.466,0.315,4.917,0.96c1.443,0.637,2.524,1.419,3.233,2.346c0.725,0.928,1.208,1.961,1.467,3.121
			C889.577,608.576,889.71,610.432,889.71,612.972L889.71,612.972z M881.361,610.166c0-1.771-0.08-2.879-0.257-3.331
			c-0.171-0.45-0.573-0.677-1.218-0.677c-0.623,0-1.033,0.242-1.225,0.716c-0.203,0.469-0.307,1.574-0.307,3.292v16.322
			c0,1.941,0.096,3.109,0.282,3.506c0.184,0.401,0.588,0.604,1.217,0.604c0.619,0,1.021-0.234,1.218-0.71
			c0.193-0.47,0.289-1.515,0.289-3.151V610.166z M912.414,612.972v11.166c0,2.541-0.145,4.381-0.42,5.54
			c-0.272,1.171-0.846,2.242-1.716,3.256c-0.862,1.003-1.911,1.729-3.138,2.162c-1.218,0.446-2.588,0.672-4.11,0.672
			c-1.993,0-3.655-0.233-4.977-0.695c-1.322-0.466-2.379-1.186-3.169-2.161c-0.785-0.983-1.34-2.015-1.669-3.089
			c-0.332-1.089-0.491-2.813-0.491-5.167v-11.684c0-3.08,0.265-5.379,0.796-6.91c0.525-1.532,1.581-2.758,3.161-3.685
			c1.573-0.928,3.484-1.38,5.733-1.38c1.833,0,3.468,0.315,4.919,0.96c1.443,0.637,2.524,1.419,3.235,2.346
			c0.725,0.928,1.208,1.961,1.465,3.121C912.285,608.576,912.414,610.432,912.414,612.972L912.414,612.972z M904.067,610.166
			c0-1.771-0.078-2.879-0.257-3.331c-0.171-0.45-0.571-0.677-1.219-0.677c-0.619,0-1.031,0.242-1.226,0.716
			c-0.197,0.469-0.307,1.574-0.307,3.292v16.322c0,1.941,0.1,3.109,0.284,3.506c0.186,0.401,0.588,0.604,1.217,0.604
			c0.623,0,1.023-0.234,1.218-0.71c0.191-0.47,0.289-1.515,0.289-3.151V610.166z"/>
	</g>
</g>
</svg>
